<?xml version="1.0" encoding="iso-8859-1"?>
<!-- Generator: Adobe Illustrator 19.0.0, SVG Export Plug-In . SVG Version: 6.00 Build 0)  -->
<svg version="1.1" id="Capa_1" xmlns="http://www.w3.org/2000/svg" xmlns:xlink="http://www.w3.org/1999/xlink" x="0px" y="0px"
	 viewBox="0 0 511.993 511.993" style="enable-background:new 0 0 511.993 511.993;" xml:space="preserve">
<path style="fill:#414B82;" d="M473.393,470.989l-78.917-164.446c-4.649-9.686-14.331-15.952-25.072-16.225h-67.378l-6.007-133.948
	c-0.881-19.616-17.497-34.804-37.113-33.924l-60.438,2.713c-20.694,0.929-36.24,19.314-33.69,39.892
	c22.953,183.384,21.159,175.04,22.989,180.537l162.685,1.497l71.344,148.665c6.804,14.177,23.865,20.287,38.179,13.417
	C474.222,502.33,480.23,485.237,473.393,470.989z"/>
<path style="fill:#64AFFF;" d="M184.193,321.675H303.44l-7.421-165.305c-0.881-19.616-17.497-34.804-37.113-33.924l-60.438,2.713
	c-20.694,0.929-36.24,19.314-33.69,39.892L184.193,321.675z"/>
<path style="fill:#C8E6EB;" d="M403.043,290.17h-79.15c-9.368,0-16.963-7.595-16.963-16.963s7.595-16.963,16.963-16.963h69.102
	l38.596-70.448c4.501-8.216,14.812-11.228,23.027-6.726c8.216,4.501,11.228,14.811,6.727,23.027l-43.425,79.26
	C414.942,286.791,409.239,290.17,403.043,290.17z"/>
<g>
	<circle style="fill:#FFB69E;" cx="236.836" cy="52.632" r="52.632"/>
	<path style="fill:#FFB69E;" d="M255.364,256.742l-50.908-83.245c-6.861-11.241-3.31-25.915,7.931-32.776
		c11.24-6.861,25.916-3.31,32.777,7.932l43.079,70.416l79.824-8.165c13.108-1.337,24.808,8.195,26.148,21.296
		s-8.194,24.808-21.295,26.148l-94.775,9.694C268.932,268.981,260.11,264.517,255.364,256.742z"/>
</g>
<path style="fill:#78BEFF;" d="M281.216,207.582l-36.052-58.93c-6.861-11.242-21.537-14.793-32.777-7.932
	c-11.241,6.861-14.792,21.536-7.931,32.776l34.892,57.055L281.216,207.582z"/>
<g>
	<path style="fill:#501E0F;" d="M174.967,511.991h-34.236c-5.166,0-9.354-4.188-9.354-9.354v-22.328
		c0-5.166,4.188-9.354,9.354-9.354h34.236c5.166,0,9.354,4.188,9.354,9.354v22.328C184.321,507.803,180.133,511.991,174.967,511.991
		z"/>
	<path style="fill:#501E0F;" d="M340.016,502.637c0,5.166-4.188,9.354-9.354,9.354h-34.236c-5.166,0-9.354-4.188-9.354-9.354
		v-22.328c0-5.166,4.188-9.354,9.354-9.354h34.236c5.166,0,9.354,4.188,9.354,9.354V502.637z"/>
</g>
<path style="fill:#823214;" d="M334.429,303.031H145.048l-28.315-133.386c-4.013-18.902-20.702-32.42-40.025-32.42l0,0
	c-26.017,0-45.427,23.963-40.025,49.413L96.112,466.59c2.796,13.172,14.933,21.445,24.957,21.445c21.726,0,48.727,0,63.252,0
	h174.491c10.869,0,19.679-8.811,19.679-19.68V347.093C378.491,322.758,358.764,303.031,334.429,303.031z"/>
</svg>
