<svg xmlns="http://www.w3.org/2000/svg" xmlns:xlink="http://www.w3.org/1999/xlink" viewBox="-750 -750 2000 2000"><defs><path id="a" d="M-750-750h2000v2000H-750z"/></defs><clipPath id="b"><use xlink:href="#a" overflow="visible"/></clipPath><g clip-path="url(#b)" fill="rgba(255,255,255,.3)"><path d="M-350.021 267.215c.005.012-.016.02-.01.032l43.591 81.596c.008.015.029.01.039.024.006.01-.01.02-.003.029l37.475 46.096 14.539 74.121c.006.03.049.025.062.052.009.024-.028.045-.013.067l73.036 109.644-47.604-26.2-71.038-59.232-61.465-74.331c-.112-.138-.328-.151-.473-.039a.334.334 0 0 0-.046.473l61.475 74.343c.01.012.029.008.041.018.006.006-.004.016.002.021l71.101 59.284c.015.012.034.009.05.018.007.005-.002.017.006.021l48.759 26.836 44.306 66.514c.019.028.055.023.08.043.013.013-.007.038.009.049l110.81 75.693-48.941-5.131-88.479-26.996-85.476-44.617a.335.335 0 0 0-.454.138.336.336 0 0 0 .145.454l85.519 44.638c.016.008.032.007.048.012.006.002.002.012.007.014l88.525 27.01a.54.54 0 0 0 .058.008c.003 0 .002.005.004.005l50.215 5.264 64 43.717c.034.023.072.025.109.034.008.002.004.016.012.018l136.548 28.429-44.318 13.44-91.984 9.468-96.104-7.908h-.026a.334.334 0 0 0-.335.309.335.335 0 0 0 .309.362l96.137 7.91h.059l92.044-9.474c.002 0 .002-.004.004-.005.02-.002.041-.004.062-.008l45.529-13.808 78.059 16.252c.02.006.046.006.066.006.02 0 .046 0 .066-.006l127.743-25.054-33.494 27.083-81.592 43.307-91.961 28.777a.336.336 0 0 0 .102.656.538.538 0 0 0 .102-.013l91.978-28.784c.006-.002.002-.011.007-.013.018-.006.035-.004.052-.013l81.662-43.344c.006-.004-.001-.013.005-.017.015-.008.034-.006.048-.016l34.504-27.9 87.322-17.126c.007-.002.003-.014.01-.015.037-.009.078-.012.108-.031l101.164-67.387-19.342 34.972-59.263 70.781-74.4 61.239a.35.35 0 0 0-.046.48.349.349 0 0 0 .263.118.39.39 0 0 0 .217-.072l74.402-61.242c.008-.007-.004-.022.003-.029.01-.01.027-.006.036-.017l59.33-70.861c.007-.009-.008-.02-.002-.028.011-.014.032-.009.042-.024l19.984-36.132 74.99-49.952c.017-.011-.004-.036.01-.049.026-.02.062-.016.082-.043l72.96-106.82-4.014 37.961-27.06 88.233-44.665 85.252a.335.335 0 0 0 .592.315l44.684-85.289c.006-.012-.014-.02-.01-.032.007-.015.031-.01.036-.027l27.076-88.285c.004-.015-.022-.021-.019-.036.004-.016.03-.012.032-.029l4.148-39.235 46.436-67.986c.016-.023-.023-.046-.013-.071.014-.028.059-.021.066-.054l28.637-137.503 11.616 38.285 9.429 91.747-7.974 95.868a.337.337 0 0 0 .309.361h.026a.336.336 0 0 0 .335-.309l7.976-95.9c.001-.015-.024-.015-.024-.029 0-.015.026-.015.024-.03l-9.435-91.807c-.002-.017-.028-.013-.032-.029-.002-.016.024-.022.019-.037l-11.984-39.495 16.058-77.102c.006-.03-.042-.036-.044-.066.002-.03.05-.035.044-.066L789.088 124.75l26.732 32.978 43.259 81.334 28.714 91.739a.337.337 0 0 0 .322.237c.033 0 .066-.007.099-.013a.34.34 0 0 0 .223-.421l-28.719-91.761c-.004-.015-.031-.006-.037-.02-.005-.014.018-.023.011-.036l-43.298-81.409c-.007-.014-.028.001-.037-.012-.008-.013.015-.029.004-.041l-27.549-33.985-15.861-80.857c-.006-.029-.05-.016-.063-.042-.009-.028.034-.053.017-.08L699.224-68.258l39.639 21.807 70.771 59.068 61.155 74.127a.322.322 0 0 0 .256.122.335.335 0 0 0 .217-.076.34.34 0 0 0 .04-.473l-61.19-74.169c-.009-.01-.026.006-.036-.004-.011-.012.009-.032-.004-.042L739.27-46.991c-.013-.01-.028.012-.041.004-.012-.01.002-.032-.012-.04l-40.806-22.448-43.655-65.541c-.018-.024-.056.004-.078-.015-.018-.022.01-.059-.014-.077L536.28-215.965l47.904 4.929 88.165 26.806 85.214 44.446a.347.347 0 0 0 .158.036.335.335 0 0 0 .296-.181.334.334 0 0 0-.138-.453l-85.236-44.458c-.015-.008-.025.018-.04.013-.014-.006-.004-.031-.019-.036l-88.233-26.826c-.016-.004-.022.022-.038.02-.016-.004-.011-.032-.028-.033l-49.172-5.06-56.44-38.548c-.029-.019-.052.026-.082.016-.026-.013-.013-.059-.043-.065L326.764-286.97l50.959-15.634 91.694-9.662 95.821 7.734h.026a.336.336 0 0 0 .026-.67l-95.854-7.737h-.059l-91.754 9.668c-.016.002-.011.03-.027.034-.017.002-.022-.025-.039-.02l-52.16 16.002-62.814-13.082c-.028-.008-.037.042-.066.044-.028-.001-.038-.052-.065-.044l-147.397 28.91 44.54-36.303 81.281-43.499 91.688-28.95a.343.343 0 0 0 .224-.424.346.346 0 0 0-.42-.22l-91.712 28.956c-.016.005-.005.03-.019.037-.013.006-.024-.019-.036-.011l-81.354 43.538c-.015.008.001.031-.012.04-.015.008-.03-.014-.044-.004l-45.536 37.115-67.69 13.276c-.03.005-.018.052-.043.065-.028.01-.053-.033-.078-.016l-119.023 79.284 28.595-52.233 58.998-70.99 74.088-61.405a.336.336 0 1 0-.427-.519l-74.113 61.426c-.013.011.006.03-.004.042-.011.011-.032-.01-.042.004l-59.041 71.042c-.01.012.012.028.004.041-.01.012-.032-.002-.04.012l-29.226 53.387-57.14 38.062c-.024.016.004.053-.015.074-.022.019-.06-.01-.077.015l-83.539 122.308 6-58.822 26.753-88.406 44.391-85.438a.338.338 0 0 0-.145-.454.338.338 0 0 0-.453.145l-44.406 85.466c-.007.014.017.024.012.038-.006.014-.03.004-.035.018l-26.771 88.466c-.005.016.023.022.02.038-.004.016-.031.011-.033.028l-6.129 60.086-35.872 52.519c-.017.026.025.052.015.08-.012.026-.058.013-.064.042l-31.398 150.791-17.456-56.947-9.721-91.941 7.688-96.042a.335.335 0 0 0-.309-.362c-.214-.026-.352.122-.362.309l-7.69 96.078c-.001.016.025.015.026.03 0 .016-.027.016-.026.032l9.727 91.998c.002.016.027.013.031.028.002.014-.022.02-.018.034l17.824 58.151-13.291 63.812c-.006.031.042.038.044.068-.002.03-.05.036-.044.067l27.649 140.962-36.66-45.092-43.56-81.538-28.997-91.911a.343.343 0 0 0-.424-.22.338.338 0 0 0-.22.424l29.005 91.928c.005.016.029.012.036.027zm53.841-14.642l13.026-62.554 7.726 25.208c.006.016.029.012.037.027.005.013-.017.023-.01.036l40.434 74.382a.33.33 0 0 0 .296.177.357.357 0 0 0 .161-.039.336.336 0 0 0 .135-.454l-40.418-74.359-8.076-26.347 31.632-151.914 35.135-51.441-2.709 26.56c-.002.016.027.017.027.033-.001.016-.029.017-.027.033l8.367 84.195a.335.335 0 0 0 .335.302h.033a.34.34 0 0 0 .302-.368l-8.364-84.162 2.831-27.758 84.207-123.286 56.012-37.311-12.551 22.927c-.008.015.018.026.012.042-.008.015-.034.004-.039.02l-24.987 80.762a.336.336 0 1 0 .644.197l24.976-80.729 13.152-24.025 120.04-79.961 66.389-13.021-21.84 17.801c-.012.01.007.03-.004.042-.012.011-.031-.008-.042.004L37.19-187.066a.335.335 0 0 0 .26.549.326.326 0 0 0 .26-.122l53.452-65.316 22.788-18.574 148.564-29.138 61.552 12.819-30.946 9.494c-.016.005-.005.031-.02.038-.014.005-.027-.019-.039-.012l-74.11 40.368a.336.336 0 0 0 .161.631.357.357 0 0 0 .161-.039l74.069-40.35 32.091-9.845 152.906 31.844 55.361 37.81-37.216-3.83h-.066l-83.91 8.302a.338.338 0 0 0-.302.368c.02.174.164.302.335.302h.033l83.876-8.298 38.417 3.953 119.36 81.521 42.899 64.406-35.234-19.383c-.017-.008-.027.018-.045.013-.015-.008-.004-.034-.021-.04l-80.486-25.049a.338.338 0 0 0-.42.223.34.34 0 0 0 .223.421l80.445 25.036 36.35 19.997 74.37 111.654 15.602 79.54-27.108-33.442c-.01-.012-.03.006-.042-.004-.011-.013.009-.034-.004-.045l-65.072-53.542c-.158-.128-.355-.098-.48.046a.34.34 0 0 0 .046.473l65.054 53.526 27.883 34.397 26.557 135.386-15.793 75.832-13.248-43.661c-.005-.016-.031-.006-.038-.02-.005-.015.019-.025.012-.039l-40.092-74.179c-.086-.161-.309-.22-.454-.135a.34.34 0 0 0-.138.457l40.073 74.137 13.598 44.816-28.874 138.64-45.697 66.904 4.993-47.217c.002-.016-.027-.017-.027-.033.001-.016.029-.016.027-.033l-8.029-83.975c-.02-.184-.158-.296-.368-.302a.338.338 0 0 0-.302.368l8.026 83.94-5.121 48.424-73.622 107.79-73.86 49.199 22.106-39.97c.007-.013-.016-.024-.011-.038.007-.015.032-.011.037-.028l25.322-80.552a.34.34 0 0 0-.223-.42c-.171-.033-.362.052-.421.223l-25.309 80.51-22.725 41.09-102.194 68.072-86.006 16.868 33.172-26.823c.008-.007-.004-.019.003-.026.012-.011.032-.006.043-.02l53.818-65.125a.34.34 0 0 0-.04-.473.34.34 0 0 0-.473.039l-53.796 65.098-34.14 27.606-128.922 25.285-76.787-15.988 37.886-11.489c.006-.002.001-.011.007-.013.019-.006.038-.004.056-.014l74.448-40.158a.336.336 0 0 0-.316-.592l-74.423 40.141-39.033 11.838-137.684-28.661-62.919-42.979 36.498 3.826h.069l84.254-8.095a.34.34 0 0 0 .302-.368.337.337 0 0 0-.335-.302h-.033l-84.218 8.091-37.71-3.954-111.783-76.357-43.558-65.391 27.614 15.198c.016.009.035.007.052.013.006.002.001.012.007.014l80.831 25.263c.036.006.069.013.102.013a.336.336 0 0 0 .102-.657l-80.805-25.254-28.712-15.802-73.709-110.655-14.283-72.82 17.508 21.536c.011.014.031.009.043.021.009.008-.006.024.003.032l65.404 53.752a.363.363 0 0 0 .214.072c.098 0 .194-.04.259-.118a.343.343 0 0 0-.046-.48l-65.394-53.744-18.265-22.466-27.877-142.131z"/><path d="M-182.392 350.907c0 .031.048.027.056.055.004.03-.042.047-.03.076l68.988 157.412c.013.029.052.023.072.046.012.018-.016.042 0 .059L9.628 628.667c.027.024.065.023.097.038.012.007.001.029.015.035l165.227 65.959a.4.4 0 0 0 .125.02h.006l177.865-3.403.002-.002a.337.337 0 0 0 .13-.025l157.418-68.995c.013-.006.002-.028.014-.035.03-.016.067-.013.092-.038l120.105-122.937c.016-.018-.013-.043-.001-.063.02-.024.061-.018.073-.049l65.966-165.217c.012-.03-.036-.046-.033-.076.006-.028.054-.026.053-.055l-3.41-177.875c0-.03-.048-.026-.055-.054-.004-.03.04-.046.028-.074L624.35-1.587c-.013-.027-.053-.006-.071-.028-.014-.024.02-.056-.001-.077L501.347-121.801c-.022-.022-.054.015-.08 0-.023-.018-.003-.061-.032-.073l-165.224-65.959c-.026-.011-.043.033-.071.03-.027-.007-.024-.053-.054-.053h-.007l-177.871 3.404c-.03 0-.026.048-.054.055-.028.006-.049-.043-.075-.029L.473-115.438c-.028.012-.006.054-.028.072-.025.015-.056-.021-.077 0L-119.741 7.569c-.022.022.015.054 0 .08-.018.023-.061.002-.072.031l-65.963 165.227c-.012.03.035.045.032.075-.007.03-.055.025-.055.056l3.407 177.869zm63.177-342.913L.802-114.846l157.291-68.937 177.73-3.401 165.099 65.91L623.759-1.257l68.944 157.291 3.407 177.725-65.919 165.1-120.015 122.843-157.301 68.944-177.712 3.4-165.11-65.912-122.84-120.02-68.937-157.295-3.404-177.723 65.913-165.102z"/><path d="M-146.558 239.573l26.153 157.451c.005.031.05.026.063.053.008.026-.032.047-.017.072l81.718 130.776c.018.03.056.023.081.044.013.013-.007.037.008.048l124.75 90.637c.031.024.068.024.103.034.01.004.004.022.015.025l155.246 37.076a.35.35 0 0 0 .079.006h.056l157.461-26.156c.01-.002.005-.017.014-.02.038-.007.078-.008.11-.033l130.769-81.715c.015-.009-.003-.032.01-.044.026-.02.062-.014.082-.042l90.644-124.751c.016-.021-.02-.042-.01-.064.016-.027.061-.022.069-.054l37.07-155.25c.006-.03-.04-.037-.041-.066.004-.03.052-.034.047-.065l-26.15-157.467c-.006-.032-.052-.022-.069-.049-.008-.026.032-.048.016-.072L550-20.825c-.015-.025-.053.002-.074-.018-.018-.023.013-.06-.012-.078l-124.751-90.641c-.026-.018-.049.023-.076.012-.025-.015-.012-.06-.042-.068l-155.257-37.07c-.016-.004-.024.026-.041.025-.018-.003-.019-.032-.038-.032-.02 0-.039 0-.052.003l-157.458 26.153c-.03.005-.019.052-.046.064-.028.008-.05-.032-.076-.018l-130.77 81.721c-.026.016.002.055-.018.076-.023.018-.059-.012-.078.012l-90.638 124.75c-.018.024.022.049.012.076-.015.027-.06.011-.068.042l-37.073 155.253c-.008.031.041.039.043.07-.002.031-.05.035-.045.066zm37.719-155.169l90.557-124.64 130.66-81.648 157.316-26.131 155.133 37.04L549.474-20.41l81.64 130.641 26.131 157.349-37.04 155.125-90.561 124.636-130.645 81.637-157.349 26.137-155.12-37.046-124.63-90.55-81.652-130.67-26.13-157.316 37.043-155.129z"/><path d="M-95.01 292.556c-.003.032.046.032.052.062.001.031-.049.044-.039.076l42.71 133.325c.01.03.053.025.07.05.011.02-.02.044-.005.061l87.536 103.088c.022.027.058.022.086.04.013.009-.002.032.012.039L155.2 592.103c.04.02.08.025.12.03.005.001.004.009.008.009l139.435 12.438h.033c.033 0 .066-.006.105-.013l133.318-42.714c.013-.004.004-.025.016-.031.032-.013.07-.011.096-.035l103.101-87.536c.016-.014-.009-.038.004-.054.022-.022.06-.017.074-.045l62.799-119.777c.013-.026-.028-.044-.022-.07.011-.028.058-.024.061-.054l12.444-139.448c.003-.03-.045-.031-.05-.06-.001-.03.046-.041.037-.071L564.068 81.35c-.009-.03-.057-.013-.072-.038-.012-.026.026-.054.007-.078l-87.537-103.1c-.02-.024-.051.011-.076-.006-.021-.02.004-.061-.023-.076l-119.783-62.8c-.028-.014-.047.03-.076.024-.027-.01-.019-.057-.049-.06l-139.452-12.44c-.036-.004-.029.045-.06.05-.029.002-.044-.048-.072-.037L83.554-54.494c-.03.01-.012.055-.038.072-.027.012-.053-.026-.078-.006l-103.09 87.536c-.023.019.01.052-.006.075-.02.022-.061-.003-.076.024l-62.806 119.78c-.014.028.03.048.024.078-.01.028-.058.02-.06.05L-95.01 292.556zm75.846-258.983L83.818-53.87l133.2-42.678L356.326-84.12 476-21.378l87.443 102.992 42.675 133.2-12.433 139.311L530.95 473.78l-102.996 87.447-133.201 42.676-139.302-12.425-119.665-62.742-87.447-102.983-42.673-133.208 12.422-139.301 62.748-119.671z"/><path d="M-40.71 210.986l6.715 118.692c.002.031.049.027.059.056.005.03-.04.047-.026.076l52.296 106.768c.015.03.054.023.076.046.012.015-.012.039.003.052l86.242 75.854c.029.026.065.023.098.037.011.005.002.024.014.028l108.381 38.022a.34.34 0 0 0 .112.02h.02l118.693-6.715s.002-.005.004-.005a.281.281 0 0 0 .127-.028l106.768-52.293c.014-.007 0-.032.013-.04.028-.016.063-.014.085-.038l75.854-86.242c.016-.018-.015-.042-.004-.063.018-.025.059-.018.069-.049l38.022-108.377c.011-.03-.037-.042-.034-.071.006-.03.056-.029.054-.06l-6.715-118.699c-.001-.03-.049-.024-.058-.052-.005-.03.039-.048.026-.076L493.89 71.061c-.013-.028-.056-.003-.074-.026-.016-.024.018-.059-.004-.08l-86.243-75.85c-.024-.02-.052.018-.078.005-.024-.017-.004-.06-.033-.07L299.08-42.987c-.033-.009-.042.037-.073.036-.03-.005-.025-.057-.058-.052l-118.696 6.715c-.03.002-.024.05-.052.059-.029.005-.048-.038-.076-.026L73.357 16.041c-.028.013-.003.054-.026.074-.024.017-.059-.019-.08.005L-2.6 102.365c-.02.023.018.051.005.078-.017.024-.06.006-.071.034l-38.029 108.377c-.01.03.037.043.035.073-.004.029-.052.028-.05.059zm38.661-108.224l75.765-86.147 106.646-52.237 118.554-6.707L407.172-4.346l86.144 75.765 52.234 106.646 6.707 118.566L514.28 404.88l-75.763 86.138-106.658 52.239-118.555 6.707-108.252-37.977-86.138-75.763-52.243-106.658-6.706-118.547 37.986-108.257z"/><path d="M13.84 254.363c-.006.032.043.037.046.067-.002.028-.049.035-.042.064l19.281 94.159c.006.033.051.026.066.054.009.025-.029.048-.013.071l54.343 79.271c.018.027.056.023.082.043.014.013-.006.039.01.049l77.868 50.578c.033.023.071.023.108.031.006.002.003.014.01.015l91.144 17.714c.026.006.046.006.066.006s.046 0 .066-.006l94.166-19.277c.008-.002.004-.015.011-.018.038-.009.078-.012.114-.035l79.271-54.343c.015-.01-.004-.034.008-.047.026-.021.064-.016.084-.044l50.572-77.872c.014-.023-.023-.044-.014-.068.013-.026.054-.021.06-.05l17.72-91.143c.007-.03-.042-.036-.044-.066.002-.029.05-.036.044-.065l-19.277-94.166c-.006-.03-.053-.016-.067-.044-.01-.028.032-.052.014-.078l-54.343-79.274c-.017-.025-.053.005-.076-.014-.02-.022.01-.061-.016-.078l-77.878-50.568c-.025-.015-.048.024-.075.016-.026-.013-.013-.06-.043-.065l-91.144-17.724c-.039-.006-.034.043-.067.046-.027 0-.038-.053-.064-.042l-94.162 19.277c-.03.006-.018.053-.044.067-.028.01-.052-.034-.078-.014L82.27 85.131c-.025.017.005.054-.014.076-.023.019-.06-.01-.078.016L31.61 163.097c-.016.026.025.048.016.075-.012.026-.059.014-.065.044L13.84 254.363zm68.869-168.72l79.158-54.264 94.02-19.25 91.024 17.7 77.768 50.498 54.264 79.158 19.251 94.031-17.694 91.009-50.505 77.768-79.156 54.265-94.033 19.25-91.008-17.687-77.766-50.511-54.265-79.156-19.252-94.018 17.696-91.027 50.498-77.766z"/><path d="M78.14 280.558c-.002.03.048.027.052.055.002.029-.044.042-.033.07l24.336 67.201c.011.031.053.025.072.051.013.022-.02.048-.002.068l48.522 52.464c.024.027.061.022.09.038.014.009 0 .033.015.04l62.746 28.817c.04.017.081.021.122.023.002 0 .001.004.003.004l68.972 3.213h.013a.293.293 0 0 0 .112-.02l67.208-24.33c.011-.004.002-.022.013-.026.036-.014.075-.012.106-.04l52.464-48.528c.018-.017-.011-.043.002-.063.022-.024.062-.018.076-.049l28.817-62.746c.012-.027-.032-.044-.028-.073.008-.027.053-.022.054-.052l3.213-68.962c.001-.031-.047-.03-.054-.059-.002-.03.045-.043.034-.072l-24.336-67.201c-.01-.029-.052-.009-.069-.032-.013-.028.025-.059.004-.082l-48.522-52.47c-.024-.024-.056.013-.084-.003-.022-.018 0-.06-.028-.072l-62.746-28.814c-.029-.012-.044.032-.073.027-.028-.008-.021-.055-.052-.056l-68.962-3.21h-.016c-.028 0-.026.043-.052.049-.026.003-.038-.04-.063-.03l-67.201 24.326c-.029.01-.009.055-.033.072-.027.014-.059-.025-.082-.003l-52.47 48.522c-.022.02.012.054-.003.078-.018.022-.06 0-.072.027l-28.818 62.746c-.013.028.032.045.027.074-.008.029-.056.021-.057.051l-3.217 68.977zm32.646-131.506l52.375-48.432 67.071-24.28 68.833 3.203 62.616 28.754 48.444 52.386 24.287 67.066-3.206 68.825-28.764 62.63-52.375 48.446-67.068 24.28-68.828-3.206-62.641-28.769-48.43-52.365-24.288-67.067 3.21-68.842 28.764-62.629z"/><path d="M144.418 243.87l4.267 42.99c.003.031.05.026.061.054.007.027-.035.045-.021.07l21.15 39.396c.016.03.056.024.079.047.014.017-.011.044.006.058l34.8 28.081c.03.022.068.023.102.035.01.004.003.021.013.024l41.455 12.148a.24.24 0 0 0 .095.013h.033l42.996-4.264c.005 0 .004-.01.008-.01.04-.005.082-.01.116-.029l39.389-21.15c.015-.008 0-.032.013-.042.03-.019.07-.014.092-.044l28.082-34.803c.017-.021-.018-.045-.007-.068.016-.026.058-.019.066-.05l12.155-41.452c.008-.028-.038-.037-.036-.065.005-.028.053-.03.049-.06l-4.27-42.993c-.004-.032-.05-.027-.061-.055-.007-.026.034-.045.021-.07l-21.156-39.392c-.016-.028-.054-.002-.076-.024-.018-.025.016-.061-.009-.082l-34.796-28.085c-.025-.02-.053.02-.081.009-.025-.015-.007-.06-.037-.068l-41.459-12.148c-.017-.004-.03.028-.048.026-.021-.004-.022-.04-.044-.04h-.033l-42.986 4.264c-.031.004-.024.051-.051.062-.028.006-.049-.037-.074-.023l-39.399 21.16c-.028.015-.002.056-.023.076-.026.017-.061-.016-.082.009l-28.081 34.796c-.019.024.02.051.008.078-.014.025-.06.008-.068.037l-12.145 41.452c-.009.029.037.039.036.068-.004.032-.051.034-.049.064zm12.783-41.324l28.001-34.696 39.273-21.092 42.863-4.252 41.323 12.109 34.698 28.005 21.089 39.266 4.259 42.87-12.116 41.317-28.002 34.704-39.264 21.082-42.87 4.252-41.324-12.11L170.432 326l-21.082-39.27-4.255-42.864 12.106-41.32z"/><path d="M217.704 256.505c-.004.029.042.032.045.06 0 .028-.046.036-.039.065l3.64 14.599c.008.032.052.025.067.052.01.026-.028.05-.011.073l9.277 12.503c.021.03.059.024.086.044.014.012-.005.038.012.048l13.41 7.917c.035.022.074.024.113.03.007.002.004.014.012.016l14.895 2.096h.046c.026 0 .052 0 .079-.007l14.599-3.64c.011-.003.004-.02.014-.024.036-.01.075-.011.11-.036l12.503-9.277c.017-.013-.006-.039.008-.054.023-.021.062-.016.078-.044l7.924-13.41c.014-.024-.025-.044-.018-.07.013-.028.059-.023.064-.055l2.09-14.898c.004-.03-.044-.033-.047-.062 0-.029.048-.037.04-.067l-3.64-14.599c-.009-.03-.054-.016-.07-.042-.011-.026.029-.052.011-.076l-9.277-12.5c-.02-.025-.056.007-.079-.011-.02-.022.007-.061-.02-.077l-13.403-7.917c-.026-.016-.049.028-.077.02-.027-.012-.018-.059-.048-.062l-14.901-2.1c-.027-.003-.034.042-.06.045-.027.001-.039-.048-.064-.039l-14.599 3.64c-.03.007-.015.054-.04.068-.027.01-.053-.031-.078-.012l-12.51 9.277c-.024.018.007.056-.011.079-.022.02-.061-.007-.077.02l-7.918 13.407c-.016.027.028.049.02.078-.012.028-.059.017-.063.047l-2.093 14.895zm10.596-28.027l12.402-9.197 14.466-3.608 14.77 2.08 13.289 7.85 9.192 12.386 3.61 14.478-2.072 14.771-7.85 13.284-12.398 9.199-14.469 3.608-14.77-2.078-13.284-7.843-9.202-12.402-3.608-14.472 2.074-14.763 7.85-13.293z"/><path d="M136.156 231.682l.276 47.234c0 .029.046.026.054.053.003.029-.042.043-.03.072l17.95 43.706c.013.031.053.024.073.049.012.02-.017.046 0 .063l34.52 34.639c.027.027.065.024.098.04.012.006.001.027.014.032l45.266 18.502c.043.02.086.026.128.026h.003l47.24-.276c.04 0 .086-.007.125-.026l43.699-17.95c.013-.005.001-.025.013-.031.033-.016.071-.014.099-.041l34.638-34.527c.017-.018-.013-.043 0-.062.02-.025.06-.019.072-.05l18.508-45.256c.012-.027-.033-.042-.029-.07.007-.028.055-.025.055-.056l-.276-47.247c0-.03-.048-.027-.055-.055-.004-.028.04-.043.029-.07l-17.95-43.699c-.012-.028-.054-.008-.072-.031-.014-.025.021-.056 0-.078l-34.52-34.642c-.022-.022-.054.014-.081 0-.024-.018-.001-.063-.031-.075l-45.269-18.502c-.029-.012-.042.033-.071.03-.028-.007-.024-.053-.054-.053l-47.247.276c-.029 0-.026.046-.052.054-.028.004-.044-.042-.072-.03l-43.699 17.95c-.028.012-.008.055-.03.073-.025.014-.057-.021-.078 0l-34.636 34.52c-.022.022.014.054 0 .08-.018.023-.064.002-.075.031l-18.508 45.266c-.012.03.035.045.032.076-.009.027-.057.024-.057.055zm19.131-45.08l34.538-34.423 43.583-17.902 47.103-.275 45.151 18.454L360.085 187l17.899 43.575.275 47.12-18.454 45.124-34.549 34.438-43.57 17.896-47.119.275-45.134-18.448-34.431-34.549-17.9-43.584-.275-47.097 18.46-45.148z"/><path d="M42.326 245.818l12.448 81.659c.005.03.048.024.06.051.008.025-.031.044-.017.067l42.129 71.058c.018.03.057.024.081.046.014.015-.009.04.008.053l68.499 51.17c.03.024.068.023.103.034.011.004.004.022.015.026l83.003 20.545c.03.006.056.006.082.006h.049l81.662-12.444c.008-.002.005-.016.013-.018.036-.007.073-.008.106-.028l71.051-42.129c.015-.009-.002-.032.011-.043.028-.019.066-.015.088-.043l51.183-68.502c.017-.022-.02-.046-.01-.071.016-.027.061-.02.069-.054l20.539-83.003c.007-.029-.04-.038-.04-.066.004-.03.052-.034.047-.065l-12.444-81.653c-.005-.032-.052-.02-.065-.047-.007-.027.034-.049.019-.074l-42.135-71.054c-.016-.027-.053.001-.074-.02-.018-.024.014-.06-.011-.079l-68.499-51.18c-.028-.02-.054.023-.084.012-.026-.014-.011-.061-.042-.068l-83.002-20.539c-.016-.005-.023.026-.04.024-.018-.004-.02-.034-.04-.034-.013 0-.033 0-.052.004L185.38 51.803c-.03.004-.019.05-.046.062-.026.009-.051-.036-.075-.019l-71.055 42.132c-.027.016.001.056-.02.077-.023.018-.061-.014-.079.012l-51.173 68.499c-.018.025.022.051.012.078-.014.025-.06.011-.067.04l-20.546 83.002c-.008.03.04.038.041.068-.002.03-.051.034-.046.064zm21.186-82.905l51.092-68.391 70.942-42.065 81.531-12.424 82.861 20.504 68.397 51.106 42.062 70.93 12.425 81.535-20.506 82.868-51.104 68.397-70.925 42.054-81.536 12.426-82.878-20.514-68.384-51.084-42.062-70.945-12.428-81.525 20.513-82.872z"/><path d="M-57.55 287.727c-.003.031.045.032.05.061.001.03-.046.04-.038.07l35.565 116.308c.01.029.05.023.066.048.011.021-.022.044-.007.063l76.531 94.514c.023.028.06.024.089.042.014.01-.002.035.013.043l110.71 59.934c.039.02.079.024.12.029.005.001.004.01.008.01l125.289 12.221h.033c.033 0 .066-.007.099-.013l116.308-35.565c.01-.003.003-.021.014-.026.034-.012.07-.012.098-.034l94.514-76.531c.018-.014-.008-.041.006-.058.023-.023.063-.017.079-.047l59.934-110.71c.013-.024-.028-.044-.021-.07.011-.028.057-.024.061-.055l12.214-125.292c.004-.031-.045-.032-.05-.061-.001-.03.046-.041.038-.07l-35.559-116.301c-.009-.028-.052-.012-.068-.036-.012-.026.028-.053.008-.076l-76.531-94.514c-.019-.025-.057.008-.082-.009-.022-.02.004-.062-.023-.076l-110.71-59.941c-.025-.014-.047.029-.074.022-.028-.011-.02-.058-.05-.062L225.792-60.671c-.03.003-.032.043-.061.051-.03 0-.04-.044-.07-.038L109.359-25.092c-.028.009-.012.052-.036.068-.026.011-.052-.026-.076-.008l-94.513 76.53c-.024.02.008.055-.009.079-.02.022-.062-.005-.077.023l-59.941 110.71c-.015.028.029.048.022.077-.012.028-.058.02-.062.051L-57.55 287.727zM15.208 51.98l94.41-76.448 116.174-35.526 125.162 12.205L461.54 12.084l76.45 94.413 35.52 116.175-12.202 125.162-59.867 110.584-94.413 76.45-116.181 35.526-125.155-12.208-110.59-59.87-76.447-94.41-35.527-116.181 12.204-125.155L15.208 51.98z"/><path d="M-166.65 190.703l8.229 170.474c.001.031.048.026.057.055.005.03-.041.047-.027.076l70.549 149.015c.014.03.054.024.076.048.013.018-.014.042.003.058L33.475 622.182c.027.026.066.023.099.037.01.006.002.024.013.029l160.273 58.64c.036.013.076.02.115.02h.016l170.47-8.226c.002 0 .002-.004.002-.004a.284.284 0 0 0 .13-.029l149.028-70.552c.012-.006 0-.026.011-.033.031-.016.069-.012.094-.039l111.742-121.242c.017-.019-.014-.044-.002-.065.018-.024.056-.018.068-.047l58.646-160.27c.011-.03-.036-.044-.034-.074.006-.028.056-.027.054-.057l-8.233-170.48c-.001-.032-.049-.027-.058-.056-.005-.028.038-.046.026-.072L605.388.644c-.01-.026-.053-.004-.069-.025-.015-.024.018-.057-.003-.077L484.074-111.21c-.024-.022-.052.018-.078.003-.024-.017-.004-.062-.033-.072l-160.276-58.644c-.027-.01-.038.034-.066.03-.026-.006-.025-.05-.053-.05h-.013l-170.467 8.229c-.03.002-.025.049-.052.057-.03.004-.048-.039-.076-.028L3.935-91.134c-.028.014-.004.056-.027.076-.023.015-.055-.018-.075.003L-107.914 30.184c-.021.022.017.052.003.078-.017.025-.062.004-.072.034l-58.646 160.276c-.011.029.036.043.034.072-.008.029-.057.028-.055.059zm59.275-160.117L4.276-90.548l148.918-70.498 170.318-8.222 160.152 58.598L604.813.995 675.3 149.888l8.226 170.34-58.599 160.14-111.664 121.156-148.897 70.49-170.339 8.22-160.143-58.592-121.142-111.666-70.496-148.902-8.222-170.334 58.601-160.154z"/><path d="M617.852 854.666c.012-.004.002-.023.014-.028.033-.014.07-.012.098-.038l198.608-178.837c.017-.015-.01-.04.003-.058.022-.024.061-.016.076-.048L933.818 435.44c.012-.026-.03-.044-.025-.07.01-.028.056-.024.058-.054l16.551-276.144c.002-.031-.047-.031-.054-.06-.002-.029.045-.043.034-.072l-92.024-260.89c-.01-.029-.054-.01-.07-.034-.013-.027.026-.057.005-.081l-178.838-198.61c-.021-.024-.054.012-.08-.004-.022-.018.002-.058-.025-.072L439.133-417.82c-.026-.014-.046.031-.073.025-.028-.009-.022-.056-.052-.058l-276.144-16.551c-.036-.004-.027.047-.058.052-.03.002-.044-.044-.073-.035l-260.891 92.03c-.03.011-.011.056-.035.073-.027.014-.056-.025-.08-.004l-198.611 178.83c-.022.02.012.053-.004.077-.018.022-.059-.002-.072.025L-414.127 76.862c-.014.028.031.047.026.076-.009.029-.057.022-.059.052l-16.551 276.144c-.002.03.046.03.052.058.002.03-.046.043-.036.073l92.034 260.894c.011.031.053.025.072.05.012.02-.019.043-.003.061l178.828 198.608c.023.025.06.022.088.039.013.009-.001.032.014.04L80.555 930.126a.29.29 0 0 0 .123.028s.002.005.005.005l276.144 16.55h.02c.04 0 .072-.006.112-.02l260.893-92.023zM-430.036 353.101l16.542-276.002 117.11-240.098 198.513-178.742 260.768-91.987 276.006 16.542 240.092 117.107 178.757 198.522 91.976 260.755-16.543 276.012-117.11 240.098-198.51 178.75-260.764 91.978-276.01-16.543-240.103-117.113-178.732-198.501-91.992-260.778z"/><path d="M2060.127 1380.764h-.013l-442.418 26.97-370.482-31.046-305.729-73.391-246.78-102.994-192.657-121.72 300.217-158.046 225.252 37.598h.053l267.352-.742h.052l310.106-50.894c.004 0 .002-.007.006-.008.016-.002.032-.003.047-.006l353.279-115.046a.345.345 0 0 0 .217-.427c-.053-.171-.25-.25-.427-.217l-353.251 115.037-310.081 50.89-267.248.742-224.773-37.518 209.203-252.29 222.622-49.607c.004-.001.002-.009.006-.01.016-.004.031-.002.046-.01l247.195-100.92c.003-.001 0-.006.003-.007.016-.006.033-.004.05-.013l267.891-163.39c.007-.004-.002-.016.005-.02.011-.007.024-.004.034-.013l283.72-238.972a.334.334 0 0 0 .039-.473.33.33 0 0 0-.473-.04l-283.681 238.94-267.89 163.39v.002L1234.52 617.394l-222.151 49.502 99.467-312.293 187.536-129.482c.006-.004-.002-.014.003-.019.013-.01.031-.006.043-.018l190.972-186.25c.006-.006-.005-.016 0-.023.009-.009.025-.006.032-.016l186.604-251.876c.006-.008-.009-.017-.004-.025.007-.011.024-.007.03-.018l172.806-327.822c.005-.01-.012-.016-.008-.026.006-.011.024-.008.028-.02l147.313-416.354a.332.332 0 0 0-.204-.43.326.326 0 0 0-.427.207l-147.304 416.327-172.782 327.778-186.571 251.83-190.944 186.224-187.128 129.201-28.994-338.045 122.264-191.9c.006-.01-.011-.018-.006-.028.007-.012.027-.008.032-.022l103.331-245.47c.004-.011-.015-.017-.012-.028.006-.014.028-.009.031-.024l73.765-304.166c.003-.012-.018-.016-.017-.028.002-.012.023-.009.023-.022l31.478-368.676c.001-.013-.021-.012-.021-.025 0-.012.022-.012.021-.024l-26.465-440.224c-.013-.187-.21-.312-.355-.315a.336.336 0 0 0-.316.355l26.464 440.195-31.474 368.622-73.758 304.138-103.304 245.406-122 191.486-158.05-300.226 37.872-224.055c.003-.014-.021-.016-.02-.029.002-.014.027-.012.027-.027l-.434-265.999c0-.013-.022-.011-.024-.023 0-.015.026-.018.024-.033l-50.526-308.509c-.003-.013-.024-.008-.028-.02-.003-.012.018-.017.015-.029l-114.619-351.423a.33.33 0 0 0-.427-.214.34.34 0 0 0-.217.424l114.609 351.392 50.523 308.491.434 265.926-37.787 223.555-252.298-209.21-49.337-221.434c-.003-.016-.028-.007-.034-.022-.004-.014.02-.02.014-.034L521.63-962.334c-.005-.011-.022-.002-.028-.012-.006-.012.015-.022.008-.034l-163.022-266.301c-.008-.012-.027.002-.036-.009-.007-.011.011-.024.003-.034L120.017-1510.58a.335.335 0 1 0-.513.433l238.514 281.828 163.011 266.283 100.572 245.751 49.232 220.961-312.294-99.47-129.212-186.35c-.008-.013-.026.004-.036-.007-.009-.012.011-.028 0-.039L43.354-970.8c-.01-.01-.024.008-.035-.001-.009-.008.006-.025-.005-.032l-251.505-185.023c-.012-.008-.023.012-.035.005-.012-.008.002-.028-.011-.034l-327.392-170.936c-.01-.006-.018.014-.029.009-.011-.005-.002-.024-.014-.028l-415.845-145.096c-.008-.003-.012.012-.02.01-.009-.003-.004-.018-.012-.02-.081-.019-.122.079-.194.119-.072.038-.172.016-.203.098-.003.009.012.012.01.021-.003.008-.017.004-.02.012l-137.647 581.026-439.46 28.67c-.009 0-.006.015-.014.016-.008 0-.01-.014-.018-.013-.089.014-.084.121-.134.188-.05.063-.152.08-.145.167 0 .009.015.007.016.015.001.009-.014.01-.013.018l99.045 588.023-393.967 197.984a.334.334 0 0 0 .151.634c.052 0 .102-.01.151-.033l394.182-198.088 350.921-116.452 308.11-52.11 265.615-1.796 223.287 36.61-209.197 252.292-221.172 50.524c-.013.003-.006.026-.019.03s-.021-.019-.034-.014L-957.814-2.04c-.014.006-.002.028-.014.034-.013.006-.022-.015-.035-.008l-265.934 164.606c-.011.007.003.024-.007.032-.011.007-.025-.011-.035-.002l-281.426 240.408a.334.334 0 0 0-.036.473.331.331 0 0 0 .256.118.346.346 0 0 0 .22-.079l281.413-240.396 265.875-164.57 245.472-101.95 220.676-50.41-99.468 312.283-186.083 130.404c-.013.009.004.029-.007.04-.011.008-.026-.01-.036 0l-189.294 187.293c-.01.009.008.024 0 .034-.01.011-.027-.006-.036.005l-184.658 253.102c-.007.01.01.02.005.03-.007.01-.026-.001-.031.01l-170.506 329.252c-.006.012.015.019.01.032-.005.012-.025.002-.03.014l-144.583 418.069a.335.335 0 0 0 .21.427c.036.013.072.02.108.02.138 0 .27-.085.319-.223l144.575-418.045 170.488-329.218 184.629-253.061 189.234-187.235 185.688-130.127 28.998 338.04-120.809 192.817c-.007.011.013.021.008.032-.007.012-.028.001-.034.014l-101.656 246.518c-.005.013.018.02.014.034-.005.012-.027.006-.03.019l-71.814 305.388c-.003.014.02.016.019.03-.002.013-.024.01-.025.023l-29.185 370.106c-.001.012.02.012.02.023 0 .012-.021.011-.02.023l29.198 441.932c.01.177.158.315.335.315h.023a.334.334 0 0 0 .312-.355l-29.197-441.907 29.181-370.048 71.803-305.343L-682.073 690.5l120.534-192.379 158.047 300.22-36.414 224.966c-.002.014.021.015.021.028-.001.013-.024.011-.024.024l2.106 267.044c0 .015.024.012.026.027 0 .015-.026.017-.023.032l52.48 309.731c.002.012.022.009.026.021.002.01-.016.014-.012.025l116.906 352.858c.046.145.177.23.318.23a.511.511 0 0 0 .105-.013.337.337 0 0 0 .214-.427l-116.894-352.826-52.476-309.701-2.105-266.971 36.335-224.48 252.291 209.203 50.793 222.355c.004.015.026.011.031.025.004.014-.02.021-.014.035L2.48 1477.407c.006.012.025.009.032.021.004.009-.011.016-.006.025l164.971 267.517c.007.011.024.007.031.017.005.006-.007.016-.002.022l240.838 283.292a.336.336 0 0 0 .513-.434l-240.819-283.27L3.1 1477.134-99.173 1230.28l-50.677-221.848 312.287 99.466 130.671 187.268c.009.014.028.008.039.02.006.008-.007.018 0 .026l187.615 190.657c.01.01.026.006.037.015.005.004-.003.014.003.018l253.456 186.242c.01.008.024.005.035.012.005.003-.001.012.004.015l329.685 172.366c.014.007.028.005.042.01.004.001.001.008.004.009l418.575 146.814a.331.331 0 0 0 .427-.204.326.326 0 0 0-.203-.427l-418.55-146.804-329.651-172.348-253.404-186.204-187.576-190.618-130.393-186.869L501.3 1078.9l193.083 121.988c.012.009.027.006.04.012.006.002 0 .012.006.014l246.833 103.016c.016.007.031.005.046.009.005.001.002.01.007.011l305.756 73.397a.215.215 0 0 0 .05.004l.001.002 370.541 31.051h.046l442.438-26.971a.336.336 0 0 0 .315-.355.337.337 0 0 0-.335-.314zM162.686 1107.268l-312.841-99.642-252.713-209.554-158.316-300.729-29.044-338.593 99.643-312.834 209.555-252.724L19.7-565.119l338.587-29.045 312.838 99.643L923.86-284.949l158.302 300.706 29.042 338.594-99.642 312.844L801.999 919.92l-300.712 158.306-338.601 29.042zm-667.79-1551.364c-.013-.002-.011-.025-.025-.025h-.003l-265.687 1.797c-.013 0-.011.022-.023.024-.014 0-.015-.022-.029-.02l-308.148 52.116c-.013.002-.007.024-.02.028-.011.003-.019-.019-.03-.015l-350.617 116.352-98.96-587.516 439.311-28.66 368.186 29.611 303.764 72.172 245.096 101.946L18.924-565.475l-300.226 158.047-223.772-36.689c-.017-.004-.014.022-.03.021zm-446.282-1027.081l415.476 144.967 327.344 170.912L42.888-970.313l185.909 189.581L357.726-594.79l-338.04 28.997-191.635-121.078c-.013-.008-.025.014-.038.009-.013-.008 0-.029-.014-.035l-245.155-101.971c-.013-.004-.018.016-.031.013-.012-.004-.005-.026-.018-.03l-303.802-72.181c-.012-.004-.018.021-.031.019-.013-.002-.009-.025-.022-.026l-367.854-29.584 137.528-580.52z"/></g></svg>