<?xml version="1.0" encoding="utf-8"?>
<!-- Generator: Adobe Illustrator 22.0.1, SVG Export Plug-In . SVG Version: 6.00 Build 0)  -->
<svg version="1.1" id="Capa_1" xmlns="http://www.w3.org/2000/svg" xmlns:xlink="http://www.w3.org/1999/xlink" x="0px" y="0px"
	 viewBox="0 0 1920 1080" style="enable-background:new 0 0 1920 1080;" xml:space="preserve">
<style type="text/css">
	.st0{fill:#2EC2D1;}
	.st1{fill:#2EC1D1;}
	.st2{fill:#2EBBD1;}
	.st3{fill:#2EB1D1;}
	.st4{fill:#2EB8D1;}
	.st5{fill:#2EBDD1;}
	.st6{fill:#2EAED1;}
	.st7{fill:#2EB7D1;}
	.st8{fill:#2EBFD1;}
	.st9{fill:#2EB2D1;}
	.st10{fill:#2EBCD1;}
	.st11{fill:#2EAFD1;}
	.st12{fill:#2EB5D1;}
	.st13{fill:#2EB4D1;}
	.st14{fill:#2EB6D1;}
	.st15{fill:#2EB0D1;}
	.st16{fill:#2EABD1;}
	.st17{fill:#2EC3D1;}
	.st18{fill:#2EC7D1;}
	.st19{fill:#2EB9D1;}
	.st20{fill:#2EC4D1;}
	.st21{fill:#2EB3D1;}
	.st22{fill:#2EA9D1;}
	.st23{fill:#2EA7D1;}
	.st24{fill:#2EA8D1;}
	.st25{fill:#2EADD1;}
	.st26{fill:#2EACD1;}
	.st27{fill:#2EAAD1;}
	.st28{fill:#2EA6D1;}
	.st29{fill:#2EC6D1;}
	.st30{fill:#2EC5D1;}
	.st31{fill:#2EC0D1;}
	.st32{fill:#2EBED1;}
	.st33{fill:#2EBAD1;}
	.st34{fill:#2EC9D1;}
	.st35{fill:#2EC8D1;}
</style>
<g>
	<g>
		<g>
			<g>
				<g>
					<g>
						<polygon class="st0" points="382.6,471.1 -33.2,159.2 -26.6,150.3 389.2,462.1 						"/>
					</g>
					<g>
						<polygon class="st1" points="142.6,347 -137.4,137.1 -133.4,131.8 146.6,341.7 						"/>
					</g>
					<g>
						<g>
							<polygon class="st2" points="456.7,480.2 -134.5,40 -83.5,26.8 507.8,467 							"/>
						</g>
					</g>
					<g>
						<polygon class="st3" points="407.6,254 -183.7,-186.2 -132.6,-199.4 458.7,240.9 						"/>
					</g>
					<g>
						<polygon class="st4" points="285.6,284.8 -126,-23.9 -123.4,-27.4 288.3,281.2 						"/>
					</g>
					<g>
						<polygon class="st5" points="332,362.1 -79.5,53.4 -76.9,49.8 334.8,358.6 						"/>
					</g>
					<g>
						
							<rect x="9.9" y="-376.2" transform="matrix(0.5999 -0.8001 0.8001 0.5999 100.0061 -37.8481)" class="st6" width="4.4" height="514.5"/>
					</g>
					<g>
						<polygon class="st7" points="416.9,238 5.4,-70.7 8,-74.1 419.6,234.5 						"/>
					</g>
					<polygon class="st8" points="347,297.6 86.9,102.4 87.3,49.6 397.6,282.3 					"/>
					<polygon class="st8" points="556.7,289.9 296.6,94.9 297,42 607.3,274.8 					"/>
				</g>
				<g>
					<g>
						<polygon class="st9" points="-25.2,-191.8 390.7,120 397.3,111.2 -18.5,-200.7 						"/>
					</g>
					<g>
						<polygon class="st10" points="137.9,20.4 417.8,230.4 421.8,225 141.8,15 						"/>
					</g>
					<g>
						<g>
							<polygon class="st6" points="-78,-243.9 510.2,200.4 508.6,147.8 -79.6,-296.6 							"/>
						</g>
					</g>
					<g>
						<polygon class="st11" points="152.9,-260.1 741.1,184.2 739.5,131.6 151.3,-312.9 						"/>
					</g>
					<g>
						<polygon class="st12" points="157.6,-134.4 569.2,174.3 571.8,170.8 160.2,-137.9 						"/>
					</g>
					<g>
						<polygon class="st13" points="70.4,-157.4 482,151.3 484.6,147.8 73,-160.9 						"/>
					</g>
					<g>
						<polygon class="st14" points="414.6,-137.5 826.1,171.1 828.8,167.6 417.2,-141 						"/>
					</g>
					<g>
						<polygon class="st15" points="165.7,-273.6 577.2,35.1 579.9,31.6 168.3,-277.1 						"/>
					</g>
					<polygon class="st15" points="128.2,-189.7 388.3,5.3 438.9,-9.8 128.6,-242.6 					"/>
					<polygon class="st16" points="135.3,-331.1 395.4,-136 446,-151.3 135.8,-384 					"/>
				</g>
				<g>
					<g>
						<polygon class="st17" points="121.1,179.1 536.9,491 543.5,482.1 127.8,170.2 						"/>
					</g>
					<g>
						<polygon class="st18" points="230.7,278.5 510.7,488.5 514.6,483.2 234.7,273.2 						"/>
					</g>
					<g>
						<g>
							<polygon class="st19" points="14.8,14.2 603.1,458.6 601.5,405.9 13.2,-38.5 							"/>
						</g>
					</g>
					<g>
						<polygon class="st1" points="484.1,79.2 794.1,313.4 793.2,285.6 483.3,51.5 						"/>
					</g>
					<g>
						<polygon class="st17" points="250.4,123.8 662,432.5 664.7,429 253.1,120.3 						"/>
					</g>
					<g>
						<polygon class="st1" points="163.2,100.8 574.8,409.5 577.4,406 165.9,97.3 						"/>
					</g>
					<g>
						<polygon class="st20" points="507.4,120.7 919.1,429.3 921.7,425.8 510,117.2 						"/>
					</g>
					<g>
						<polygon class="st2" points="258.5,-15.4 670.1,293.3 672.8,289.7 261.1,-18.9 						"/>
					</g>
					<polygon class="st5" points="221,68.4 481.1,263.6 531.8,248.3 221.5,15.6 					"/>
					<polygon class="st21" points="169.5,-135 429.7,60.1 480.3,44.9 170,-187.8 					"/>
				</g>
				<g>
					<g>
						<polygon class="st22" points="-339.6,-361.4 76.2,-49.6 82.9,-58.5 -332.9,-370.3 						"/>
					</g>
					<g>
						<polygon class="st21" points="-163,-146.5 116.9,63.4 120.9,58.2 -159.1,-151.9 						"/>
					</g>
					<g>
						<g>
							<polygon class="st23" points="-378.9,-410.8 209.3,33.6 207.7,-19.1 -380.5,-463.5 							"/>
						</g>
					</g>
					<g>
						<polygon class="st24" points="-148,-427 440.3,17.3 438.7,-35.3 -149.6,-479.7 						"/>
					</g>
					<g>
						<polygon class="st25" points="-143.3,-301.3 268.3,7.4 271,3.9 -140.7,-304.8 						"/>
					</g>
					<g>
						<polygon class="st16" points="-230.5,-324.3 181.1,-15.6 183.7,-19 -227.9,-327.8 						"/>
					</g>
					<g>
						<polygon class="st11" points="113.7,-304.4 525.3,4.3 527.9,0.8 116.4,-307.9 						"/>
					</g>
					<g>
						<polygon class="st24" points="-135.2,-440.5 276.4,-131.8 279,-135.3 -132.6,-444 						"/>
					</g>
					<polygon class="st22" points="-172.7,-356.6 87.4,-161.5 138,-176.7 -172.3,-409.5 					"/>
					<polygon class="st23" points="-185.3,-514.8 74.8,-319.8 125.4,-335 -184.9,-567.7 					"/>
					<polygon class="st9" points="-387.7,-105.1 -292.4,-33.6 -273.9,-39.2 -387.5,-124.4 					"/>
					<polygon class="st25" points="-369.4,-249.1 -274.1,-177.5 -255.6,-183.2 -369.3,-268.4 					"/>
					<polygon class="st15" points="-354.9,-168.8 -259.6,-97.3 -241,-102.9 -354.7,-188.1 					"/>
				</g>
				<g>
					<g>
						<polygon class="st14" points="-444.5,-29.2 -28.7,282.7 -22,273.9 -437.8,-38.1 						"/>
					</g>
					<g>
						<polygon class="st0" points="-258.2,166.5 21.8,376.5 25.7,371.2 -254.2,161.1 						"/>
					</g>
					<g>
						<g>
							<polygon class="st3" points="-474.1,-97.8 114.2,346.5 112.5,293.9 -475.7,-150.5 							"/>
						</g>
					</g>
					<g>
						<polygon class="st9" points="-243.1,-114 345,330.3 343.5,277.7 -244.8,-166.7 						"/>
					</g>
					<g>
						<polygon class="st19" points="-238.5,11.8 173.1,320.4 175.8,316.8 -235.8,8.2 						"/>
					</g>
					<g>
						<polygon class="st4" points="-325.7,-11.2 85.9,297.5 88.6,294 -323,-14.8 						"/>
					</g>
					<g>
						<polygon class="st2" points="18.5,8.6 430.1,317.3 432.7,313.7 21.2,5.1 						"/>
					</g>
					<g>
						<polygon class="st13" points="-230.4,-127.4 181.2,181.2 183.8,177.7 -227.8,-131 						"/>
					</g>
					<polygon class="st12" points="-267.9,-43.6 -7.8,151.5 42.8,136.3 -267.4,-96.5 					"/>
					<polygon class="st26" points="-319.3,-247 -59.2,-52 -8.6,-67.2 -318.9,-299.9 					"/>
				</g>
			</g>
			<g>
				<g>
					<g>
						<polygon class="st15" points="-105.4,-219 247.7,45.8 253.4,38.3 -99.8,-226.6 						"/>
					</g>
					<g>
						<polygon class="st4" points="52.8,-52.9 290.6,125.5 293.9,121 56.1,-57.4 						"/>
					</g>
					<g>
						<g>
							<polygon class="st26" points="-130.6,-277.3 369.1,100.1 367.7,55.4 -132,-322.1 							"/>
						</g>
					</g>
					<g>
						<polygon class="st25" points="65.5,-291.1 565.2,86.3 563.8,41.6 64.2,-335.9 						"/>
					</g>
					<g>
						<polygon class="st21" points="69.5,-184.3 419.2,77.9 421.4,75 71.7,-187.3 						"/>
					</g>
					<g>
						<polygon class="st9" points="-4.6,-203.8 345,58.5 347.3,55.4 -2.3,-206.8 						"/>
					</g>
					<g>
						<rect x="461.9" y="-275.9" transform="matrix(0.6 -0.8 0.8 0.6 231.3762 348.0812)" class="st13" width="3.7" height="437"/>
					</g>
					<g>
						
							<rect x="250.5" y="-391.4" transform="matrix(0.6001 -0.7999 0.7999 0.6001 239.2138 132.6851)" class="st6" width="3.7" height="437"/>
					</g>
					<polygon class="st11" points="44.5,-231.3 265.5,-65.6 308.4,-78.5 44.9,-276.2 					"/>
					<polygon class="st24" points="0.8,-404.2 221.8,-238.4 264.8,-251.3 1.2,-449 					"/>
				</g>
				<g>
					<g>
						<polygon class="st11" points="532.1,-44.3 178.9,-309.1 184.5,-316.7 537.8,-51.8 						"/>
					</g>
					<g>
						
							<rect x="200.3" y="-366.7" transform="matrix(0.5999 -0.8001 0.8001 0.5999 255.7733 75.2191)" class="st6" width="5.6" height="297.3"/>
					</g>
					<g>
						<g>
							<polygon class="st27" points="587.1,-13.6 84.9,-387.5 128.2,-398.7 630.5,-24.8 							"/>
						</g>
					</g>
					<g>
						<polygon class="st23" points="545.4,-205.7 43.2,-579.7 86.5,-590.8 588.8,-217 						"/>
					</g>
					<g>
						<polygon class="st22" points="441.7,-179.6 92.1,-441.8 94.4,-444.8 444,-182.6 						"/>
					</g>
					<g>
						<polygon class="st26" points="481.3,-113.9 131.6,-376.1 133.9,-379.1 483.5,-116.9 						"/>
					</g>
					<g>
						<polygon class="st28" points="383.2,-389.9 33.6,-652.1 35.8,-655.1 385.4,-392.9 						"/>
					</g>
					<g>
						<polygon class="st24" points="553.4,-219.3 203.7,-481.5 206,-484.5 555.6,-222.3 						"/>
					</g>
					<polygon class="st25" points="493.9,-168.8 273,-334.5 273.3,-379.4 536.9,-181.7 					"/>
					<polygon class="st16" points="607.5,-208.2 386.5,-373.9 387,-418.8 650.5,-221.2 					"/>
				</g>
				<g>
					<g>
						<polygon class="st27" points="194.8,-75.3 -158.3,-340.2 -152.7,-347.7 200.5,-82.8 						"/>
					</g>
					<g>
						<polygon class="st26" points="87.7,-141 -150.2,-319.4 -146.7,-323.8 91.1,-145.5 						"/>
					</g>
					<g>
						<g>
							<polygon class="st22" points="354.6,-27.9 -147.7,-401.8 -104.4,-413 397.9,-39.1 							"/>
						</g>
					</g>
					<g>
						<polygon class="st28" points="189.9,-395 -74.8,-592.1 -51.9,-598 212.8,-401 						"/>
					</g>
					<g>
						<polygon class="st24" points="209.2,-193.9 -140.4,-456.1 -138.2,-459.1 211.4,-196.9 						"/>
					</g>
					<g>
						<polygon class="st27" points="248.6,-128.3 -101,-390.5 -98.7,-393.4 250.9,-131.2 						"/>
					</g>
					<g>
						<polygon class="st28" points="150.6,-404.2 -199,-666.4 -196.8,-669.5 152.9,-407.2 						"/>
					</g>
					<g>
						<polygon class="st23" points="320.7,-233.7 -28.9,-495.8 -26.6,-498.8 323,-236.6 						"/>
					</g>
					<polygon class="st27" points="261.3,-183 40.4,-348.8 40.7,-393.7 304.3,-196 					"/>
					<polygon class="st16" points="439.5,-189.5 218.5,-355.3 218.9,-400.1 482.4,-202.4 					"/>
				</g>
				<g>
					<g>
						<polygon class="st4" points="745.2,171.9 392,-93.1 397.6,-100.6 750.9,164.3 						"/>
					</g>
					<g>
						<polygon class="st7" points="527.9,78.9 290.1,-99.4 293.5,-103.9 531.3,74.4 						"/>
					</g>
					<g>
						<g>
							<polygon class="st13" points="794.8,192 292.5,-181.9 335.9,-193.1 838.2,180.9 							"/>
						</g>
					</g>
					<g>
						<polygon class="st26" points="753.1,-0.1 250.8,-374.1 294.2,-385.2 796.5,-11.3 						"/>
					</g>
					<g>
						<polygon class="st9" points="649.4,26 299.8,-236.2 302.1,-239.2 651.7,23.1 						"/>
					</g>
					<g>
						<polygon class="st12" points="688.9,91.7 339.3,-170.5 341.5,-173.4 691.2,88.6 						"/>
					</g>
					<g>
						<polygon class="st27" points="590.9,-184.2 241.3,-446.5 243.5,-449.5 593.1,-187.3 						"/>
					</g>
					<g>
						<polygon class="st3" points="761.1,-13.7 411.4,-275.8 413.6,-278.8 763.3,-16.7 						"/>
					</g>
					<polygon class="st14" points="701.5,36.9 480.6,-128.9 481,-173.7 744.6,23.9 					"/>
					<polygon class="st14" points="833.6,9.5 612.6,-156.2 613.1,-201.1 876.6,-3.4 					"/>
					<polygon class="st29" points="547.6,272 466.6,211.3 466.8,194.9 563.3,267.3 					"/>
					<polygon class="st30" points="660.6,222.8 579.7,162.2 579.8,145.7 676.4,218.2 					"/>
					<polygon class="st30" points="591.8,230.1 510.8,169.4 510.9,153 607.4,225.4 					"/>
				</g>
				<g>
					<g>
						<polygon class="st31" points="499.2,336.3 146,71.5 151.6,63.9 504.8,328.9 						"/>
					</g>
					<g>
						<polygon class="st32" points="295.3,231.1 57.5,52.7 60.9,48.2 298.8,226.6 						"/>
					</g>
					<g>
						<g>
							<polygon class="st19" points="562.2,344.1 59.9,-29.8 103.3,-41 605.5,332.9 							"/>
						</g>
					</g>
					<g>
						<polygon class="st15" points="520.5,152 18.2,-222 61.6,-233.2 563.8,140.8 						"/>
					</g>
					<g>
						<polygon class="st7" points="416.8,178.1 67.2,-84.1 69.4,-87.1 419.1,175.2 						"/>
					</g>
					<g>
						<polygon class="st33" points="456.3,243.9 106.6,-18.4 108.9,-21.4 458.5,240.8 						"/>
					</g>
					<g>
						<polygon class="st6" points="358.2,-32.2 8.6,-294.3 10.9,-297.4 360.5,-35.2 						"/>
					</g>
					<g>
						<polygon class="st14" points="528.4,138.5 178.8,-123.8 181,-126.8 530.7,135.4 						"/>
					</g>
					<polygon class="st2" points="469,188.9 248,23.3 248.3,-21.7 511.9,176 					"/>
					<polygon class="st10" points="647.1,182.5 426.1,16.7 426.5,-28.1 690.1,169.6 					"/>
				</g>
			</g>
			<g>
				<g>
					<g>
						<polygon class="st0" points="-243.8,181.3 30.5,387 34.9,381.2 -239.4,175.5 						"/>
					</g>
					<g>
						<polygon class="st18" points="-120.9,310.3 63.8,448.9 66.3,445.3 -118.3,306.9 						"/>
					</g>
					<g>
						<g>
							<polygon class="st8" points="-263.3,136 124.7,429.1 123.6,394.4 -264.4,101.2 							"/>
						</g>
					</g>
					<g>
						<polygon class="st8" points="-111,125.3 277,418.4 275.9,383.7 -112.1,90.5 						"/>
					</g>
					<g>
						<polygon class="st20" points="-107.9,208.2 163.6,411.9 165.3,409.6 -106.2,205.9 						"/>
					</g>
					<g>
						<polygon class="st17" points="-165.5,193.1 106.1,396.8 107.8,394.4 -163.7,190.8 						"/>
					</g>
					<g>
						
							<rect x="196.8" y="137.2" transform="matrix(0.6 -0.8 0.8 0.6 -166.1994 281.3356)" class="st20" width="2.9" height="339.4"/>
					</g>
					<g>
						
							<rect x="32.6" y="47.4" transform="matrix(0.5999 -0.8 0.8 0.5999 -160.0449 114.0785)" class="st31" width="2.9" height="339.3"/>
					</g>
					<polygon class="st1" points="-127.3,171.8 44.3,300.4 77.6,290.4 -127,136.9 					"/>
					<polygon class="st19" points="-161.2,37.5 10.3,166.3 43.7,156.2 -161,2.7 					"/>
				</g>
				<g>
					<g>
						<polygon class="st1" points="251.3,317 -23,111.3 -18.6,105.4 255.7,311.1 						"/>
					</g>
					<g>
						<polygon class="st31" points="86.8,252.9 -97.9,114.4 -95.2,111 89.5,249.5 						"/>
					</g>
					<g>
						<g>
							<polygon class="st10" points="294,340.8 -96,50.4 -62.3,41.8 327.8,332.2 							"/>
						</g>
					</g>
					<g>
						<polygon class="st12" points="261.6,191.7 -128.4,-98.7 -94.7,-107.4 295.4,182.9 						"/>
					</g>
					<g>
						<polygon class="st33" points="181.2,211.9 -90.3,8.3 -88.6,5.9 182.9,209.6 						"/>
					</g>
					<g>
						<polygon class="st32" points="211.8,262.9 -59.7,59.2 -58,56.9 213.6,260.6 						"/>
					</g>
					<g>
						<polygon class="st21" points="135.7,48.6 -135.8,-155.1 -134.1,-157.4 137.4,46.3 						"/>
					</g>
					<g>
						<polygon class="st19" points="267.9,181.1 -3.7,-22.5 -1.9,-24.9 269.6,178.7 						"/>
					</g>
					<polygon class="st8" points="221.7,220.3 50.1,91.6 50.3,56.7 255,210.3 					"/>
					<polygon class="st5" points="309.8,189.7 138.3,61 138.6,26.2 343.3,179.7 					"/>
				</g>
				<g>
					<g>
						<polygon class="st5" points="-10.6,293 -284.9,87.2 -280.5,81.3 -6.2,287 						"/>
					</g>
					<g>
						<polygon class="st32" points="-93.9,241.8 -278.5,103.4 -275.9,99.9 -91.2,238.4 						"/>
					</g>
					<g>
						<g>
							<polygon class="st33" points="113.4,329.8 -276.6,39.4 -243,30.6 147.1,321.1 							"/>
						</g>
					</g>
					<g>
						<polygon class="st13" points="-14.4,44.6 -220,-108.5 -202.2,-113 3.3,40 						"/>
					</g>
					<g>
						<polygon class="st4" points="0.5,200.8 -271,-2.9 -269.3,-5.2 2.3,198.5 						"/>
					</g>
					<g>
						<polygon class="st2" points="31.2,251.7 -240.3,48.2 -238.6,45.8 32.9,249.4 						"/>
					</g>
					<g>
						<polygon class="st3" points="-45,37.5 -316.5,-166.1 -314.7,-168.5 -43.2,35.1 						"/>
					</g>
					<g>
						<polygon class="st7" points="87.2,170 -184.3,-33.7 -182.6,-36 88.9,167.7 						"/>
					</g>
					<polygon class="st10" points="41,209.2 -130.6,80.5 -130.3,45.7 74.4,199.2 					"/>
					<polygon class="st5" points="179.3,204.2 7.7,75.5 8.1,40.7 212.7,194.2 					"/>
				</g>
				<g>
					<g>
						<polygon class="st18" points="416.8,484.9 142.6,279.1 146.9,273.2 421.2,478.8 						"/>
					</g>
					<g>
						<polygon class="st29" points="248,412.6 63.4,274.2 66,270.7 250.7,409.1 						"/>
					</g>
					<g>
						<g>
							<polygon class="st20" points="455.3,500.5 65.3,210.2 99,201.5 489,491.8 							"/>
						</g>
					</g>
					<g>
						<polygon class="st32" points="422.9,351.3 32.9,60.9 66.5,52.2 456.6,342.7 						"/>
					</g>
					<g>
						
							<rect x="206.1" y="98.9" transform="matrix(0.6001 -0.7999 0.7999 0.6001 -131.901 273.4057)" class="st17" width="2.9" height="339.4"/>
					</g>
					<g>
						<polygon class="st30" points="373.1,422.6 101.5,219 103.3,216.6 374.8,420.3 						"/>
					</g>
					<g>
						<polygon class="st33" points="296.9,208.3 25.4,4.6 27.2,2.3 298.7,206 						"/>
					</g>
					<g>
						<polygon class="st17" points="429.1,340.8 157.6,137.1 159.3,134.8 430.8,338.4 						"/>
					</g>
					<polygon class="st30" points="382.9,380 211.3,251.4 211.6,216.5 416.3,369.9 					"/>
					<polygon class="st30" points="485.5,358.8 313.9,230.1 314.2,195.2 518.8,348.7 					"/>
					<polygon class="st34" points="263.3,562.6 200.5,515.5 200.6,502.8 275.5,558.9 					"/>
					<polygon class="st34" points="351.1,524.4 288.3,477.3 288.4,464.5 363.4,520.8 					"/>
					<polygon class="st34" points="297.6,530.1 234.8,482.9 234.8,470.1 309.8,526.4 					"/>
				</g>
				<g>
					<g>
						<polygon class="st35" points="225.8,612.6 -48.5,406.9 -44.2,401 230.1,606.7 						"/>
					</g>
					<g>
						<polygon class="st35" points="67.4,530.8 -117.3,392.3 -114.6,388.8 70.1,527.3 						"/>
					</g>
					<g>
						<g>
							<polygon class="st18" points="274.7,618.6 -115.4,328.2 -81.7,319.5 308.4,609.9 							"/>
						</g>
					</g>
					<g>
						<polygon class="st0" points="242.3,469.4 -147.8,179.1 -114.1,170.3 276,460.7 						"/>
					</g>
					<g>
						<polygon class="st29" points="161.8,489.7 -109.7,286.2 -108,283.7 163.5,487.3 						"/>
					</g>
					<g>
						<polygon class="st18" points="192.4,540.6 -79.1,337 -77.3,334.7 194.2,538.4 						"/>
					</g>
					<g>
						<rect x="-20" y="53.7" transform="matrix(0.6 -0.8 0.8 0.6 -186.1559 74.5102)" class="st31" width="2.9" height="339.4"/>
					</g>
					<g>
						<polygon class="st29" points="248.5,458.9 -23.1,255.2 -21.3,252.9 250.2,456.5 						"/>
					</g>
					<polygon class="st35" points="202.3,498.1 30.7,369.4 31,334.5 235.7,488.1 					"/>
					<polygon class="st35" points="340.6,493.1 169,364.4 169.3,329.6 374,483.2 					"/>
				</g>
			</g>
		</g>
		<g>
			<g>
				<g>
					<g>
						<polygon class="st0" points="2079.8,1518.6 1664,1206.7 1670.6,1197.8 2086.4,1509.6 						"/>
					</g>
					<g>
						<polygon class="st1" points="1839.8,1394.5 1559.8,1184.5 1563.8,1179.3 1843.8,1389.2 						"/>
					</g>
					<g>
						<g>
							<polygon class="st2" points="2154,1527.7 1562.7,1087.5 1613.7,1074.3 2205,1514.5 							"/>
						</g>
					</g>
					<g>
						<polygon class="st3" points="2104.8,1301.5 1513.6,861.3 1564.6,848.1 2155.9,1288.3 						"/>
					</g>
					<g>
						<polygon class="st4" points="1982.8,1332.3 1571.2,1023.6 1573.8,1020.1 1985.5,1328.7 						"/>
					</g>
					<g>
						<polygon class="st5" points="2029.3,1409.5 1617.7,1100.9 1620.3,1097.3 2032,1406 						"/>
					</g>
					<g>
						
							<rect x="1707.2" y="671.3" transform="matrix(0.5999 -0.8001 0.8001 0.5999 -59.0126 1739.1003)" class="st6" width="4.4" height="514.5"/>
					</g>
					<g>
						<polygon class="st7" points="2114.2,1285.4 1702.6,976.8 1705.2,973.3 2116.8,1282 						"/>
					</g>
					<polygon class="st8" points="2044.2,1345 1784.1,1149.9 1784.5,1097.1 2094.8,1329.8 					"/>
					<polygon class="st8" points="2253.9,1337.4 1993.8,1142.3 1994.2,1089.5 2304.5,1322.2 					"/>
				</g>
				<g>
					<g>
						<polygon class="st9" points="1672.1,855.6 2087.9,1167.4 2094.6,1158.7 1678.8,846.7 						"/>
					</g>
					<g>
						<polygon class="st10" points="1835.1,1067.9 2115,1277.8 2119,1272.4 1839,1062.5 						"/>
					</g>
					<g>
						<g>
							<polygon class="st6" points="1619.2,803.6 2207.4,1247.8 2205.8,1195.2 1617.6,750.8 							"/>
						</g>
					</g>
					<g>
						<polygon class="st11" points="1850.1,787.3 2438.3,1231.7 2436.7,1179 1848.5,734.6 						"/>
					</g>
					<g>
						<polygon class="st12" points="1854.8,913.1 2266.4,1221.8 2269,1218.2 1857.5,909.6 						"/>
					</g>
					<g>
						<polygon class="st13" points="1767.6,890.1 2179.2,1198.8 2181.8,1195.3 1770.2,886.6 						"/>
					</g>
					<g>
						<polygon class="st14" points="2111.8,910 2523.3,1218.6 2526.1,1215.1 2114.4,906.5 						"/>
					</g>
					<g>
						<polygon class="st15" points="1862.9,773.9 2274.5,1082.6 2277.1,1079.1 1865.6,770.3 						"/>
					</g>
					<polygon class="st15" points="1825.4,857.7 2085.5,1052.8 2136.1,1037.6 1825.8,804.9 					"/>
					<polygon class="st16" points="1832.5,716.4 2092.6,911.4 2143.2,896.2 1833,663.5 					"/>
				</g>
				<g>
					<g>
						<polygon class="st17" points="1818.3,1226.5 2234.1,1538.4 2240.8,1529.5 1825,1217.7 						"/>
					</g>
					<g>
						<polygon class="st18" points="1927.9,1326 2207.9,1536 2211.8,1530.7 1931.9,1320.7 						"/>
					</g>
					<g>
						<g>
							<polygon class="st19" points="1712.1,1061.7 2300.3,1506.1 2298.7,1453.4 1710.5,1009 							"/>
						</g>
					</g>
					<g>
						<polygon class="st1" points="2181.3,1126.7 2491.3,1360.9 2490.4,1333.1 2180.5,1099 						"/>
					</g>
					<g>
						<polygon class="st17" points="1947.7,1171.2 2359.3,1479.9 2361.9,1476.4 1950.3,1167.8 						"/>
					</g>
					<g>
						<polygon class="st1" points="1860.4,1148.3 2272,1456.9 2274.6,1453.5 1863.1,1144.8 						"/>
					</g>
					<g>
						<polygon class="st20" points="2204.6,1168.1 2616.3,1476.8 2618.9,1473.3 2207.3,1164.6 						"/>
					</g>
					<g>
						<polygon class="st2" points="1955.8,1032.1 2367.3,1340.8 2370,1337.2 1958.4,1028.5 						"/>
					</g>
					<polygon class="st5" points="1918.2,1115.9 2178.3,1311 2229,1295.7 1918.7,1063.1 					"/>
					<polygon class="st21" points="1866.8,912.5 2127,1107.5 2177.5,1092.3 1867.2,859.6 					"/>
				</g>
				<g>
					<g>
						<polygon class="st22" points="1357.6,686 1773.4,997.9 1780.1,989 1364.3,677.2 						"/>
					</g>
					<g>
						<polygon class="st21" points="1534.2,901 1814.2,1110.9 1818.1,1105.6 1538.1,895.6 						"/>
					</g>
					<g>
						<g>
							<polygon class="st23" points="1318.4,636.7 1906.6,1081 1904.9,1028.3 1316.7,583.9 							"/>
						</g>
					</g>
					<g>
						<polygon class="st24" points="1549.3,620.5 2137.5,1064.8 2135.9,1012.1 1547.6,567.8 						"/>
					</g>
					<g>
						<polygon class="st25" points="1554,746.2 1965.5,1054.9 1968.2,1051.4 1556.6,742.7 						"/>
					</g>
					<g>
						<polygon class="st16" points="1466.7,723.2 1878.3,1031.9 1880.9,1028.4 1469.3,719.7 						"/>
					</g>
					<g>
						<polygon class="st11" points="1810.9,743.1 2222.5,1051.8 2225.1,1048.2 1813.6,739.6 						"/>
					</g>
					<g>
						<polygon class="st24" points="1562,607 1973.6,915.7 1976.3,912.2 1564.7,603.5 						"/>
					</g>
					<polygon class="st22" points="1524.5,690.9 1784.6,885.9 1835.3,870.8 1525,638 					"/>
					<polygon class="st23" points="1511.9,532.6 1772,727.7 1822.6,712.5 1512.3,479.8 					"/>
					<polygon class="st9" points="1309.5,942.4 1404.8,1013.9 1423.3,1008.3 1309.7,923.1 					"/>
					<polygon class="st25" points="1327.8,798.4 1423.1,869.9 1441.6,864.3 1328,779.1 					"/>
					<polygon class="st15" points="1342.4,878.7 1437.7,950.2 1456.2,944.6 1342.5,859.3 					"/>
				</g>
				<g>
					<g>
						<polygon class="st14" points="1252.8,1018.3 1668.5,1330.1 1675.3,1321.3 1259.4,1009.4 						"/>
					</g>
					<g>
						<polygon class="st0" points="1439,1214 1719,1424 1723,1418.7 1443,1208.6 						"/>
					</g>
					<g>
						<g>
							<polygon class="st3" points="1223.2,949.7 1811.4,1394 1809.8,1341.4 1221.6,897 							"/>
						</g>
					</g>
					<g>
						<polygon class="st9" points="1454.1,933.5 2042.3,1377.8 2040.7,1325.2 1452.5,880.7 						"/>
					</g>
					<g>
						<polygon class="st19" points="1458.7,1059.2 1870.3,1367.9 1873,1364.3 1461.4,1055.7 						"/>
					</g>
					<g>
						<polygon class="st4" points="1371.5,1036.3 1783.1,1344.9 1785.8,1341.5 1374.2,1032.7 						"/>
					</g>
					<g>
						<polygon class="st2" points="1715.7,1056.1 2127.3,1364.8 2129.9,1361.2 1718.4,1052.6 						"/>
					</g>
					<g>
						<polygon class="st13" points="1466.8,920.1 1878.4,1228.7 1881.1,1225.2 1469.5,916.5 						"/>
					</g>
					<polygon class="st12" points="1429.3,1003.9 1689.4,1198.9 1740.1,1183.8 1429.8,951 					"/>
					<polygon class="st26" points="1377.9,800.4 1638,995.5 1688.6,980.3 1378.3,747.6 					"/>
				</g>
			</g>
			<g>
				<g>
					<g>
						<polygon class="st15" points="1591.8,828.5 1944.9,1093.3 1950.6,1085.8 1597.4,820.9 						"/>
					</g>
					<g>
						<polygon class="st4" points="1750,994.6 1987.8,1173 1991.1,1168.5 1753.4,990.1 						"/>
					</g>
					<g>
						<g>
							<polygon class="st26" points="1566.6,770.1 2066.3,1147.6 2064.9,1102.8 1565.3,725.3 							"/>
						</g>
					</g>
					<g>
						<polygon class="st25" points="1762.8,756.4 2262.4,1133.8 2261,1089.1 1761.4,711.6 						"/>
					</g>
					<g>
						<polygon class="st21" points="1766.7,863.2 2116.4,1125.4 2118.6,1122.4 1769,860.2 						"/>
					</g>
					<g>
						<polygon class="st9" points="1692.6,843.7 2042.3,1105.9 2044.5,1102.9 1694.9,840.6 						"/>
					</g>
					<g>
						<rect x="2159.1" y="771.6" transform="matrix(0.6 -0.8 0.8 0.6 72.3001 2124.8838)" class="st13" width="3.7" height="437"/>
					</g>
					<g>
						
							<rect x="1947.7" y="656.1" transform="matrix(0.6001 -0.7999 0.7999 0.6001 80.0371 1909.2313)" class="st6" width="3.7" height="437"/>
					</g>
					<polygon class="st11" points="1741.7,816.2 1962.7,981.9 2005.7,969 1742.1,771.3 					"/>
					<polygon class="st24" points="1698,643.3 1919,809.1 1962,796.2 1698.4,598.5 					"/>
				</g>
				<g>
					<g>
						<polygon class="st11" points="2229.3,1003.2 1876.1,738.3 1881.7,730.8 2235,995.7 						"/>
					</g>
					<g>
						
							<rect x="1897.5" y="680.7" transform="matrix(0.5999 -0.8001 0.8001 0.5999 96.7964 1852.274)" class="st6" width="5.6" height="297.3"/>
					</g>
					<g>
						<g>
							<polygon class="st27" points="2284.4,1033.9 1782.1,660 1825.5,648.8 2327.7,1022.7 							"/>
						</g>
					</g>
					<g>
						<polygon class="st23" points="2242.6,841.8 1740.4,467.8 1783.7,456.6 2286,830.5 						"/>
					</g>
					<g>
						<polygon class="st22" points="2139,867.9 1789.4,605.6 1791.6,602.7 2141.2,864.9 						"/>
					</g>
					<g>
						<polygon class="st26" points="2178.5,933.6 1828.9,671.3 1831.1,668.4 2180.7,930.5 						"/>
					</g>
					<g>
						<polygon class="st28" points="2080.4,657.6 1730.8,395.3 1733,392.4 2082.7,654.5 						"/>
					</g>
					<g>
						<polygon class="st24" points="2250.6,828.2 1900.9,566 1903.2,563 2252.8,825.1 						"/>
					</g>
					<polygon class="st25" points="2191.1,878.7 1970.2,712.9 1970.6,668.1 2234.2,865.8 					"/>
					<polygon class="st16" points="2304.7,839.2 2083.8,673.5 2084.2,628.6 2347.7,826.3 					"/>
				</g>
				<g>
					<g>
						<polygon class="st27" points="1892,972.2 1538.9,707.3 1544.5,699.8 1897.7,964.6 						"/>
					</g>
					<g>
						<polygon class="st26" points="1784.9,906.5 1547.1,728.1 1550.5,723.7 1788.3,902 						"/>
					</g>
					<g>
						<g>
							<polygon class="st22" points="2051.8,1019.6 1549.5,645.7 1592.8,634.5 2095.1,1008.4 							"/>
						</g>
					</g>
					<g>
						<polygon class="st28" points="1887.1,652.4 1622.4,455.3 1645.3,449.5 1910,646.5 						"/>
					</g>
					<g>
						<polygon class="st24" points="1906.4,853.6 1556.8,591.4 1559,588.4 1908.6,850.6 						"/>
					</g>
					<g>
						<polygon class="st27" points="1945.9,919.2 1596.2,657 1598.5,654 1948.1,916.3 						"/>
					</g>
					<g>
						<polygon class="st28" points="1847.8,643.3 1498.2,381 1500.4,378 1850.1,640.2 						"/>
					</g>
					<g>
						<polygon class="st23" points="2018,813.8 1668.4,551.7 1670.6,548.7 2020.2,810.8 						"/>
					</g>
					<polygon class="st27" points="1958.5,864.4 1737.6,698.7 1737.9,653.8 2001.5,851.4 					"/>
					<polygon class="st16" points="2136.7,858 1915.7,692.2 1916.1,647.4 2179.7,845 					"/>
				</g>
				<g>
					<g>
						<polygon class="st4" points="2442.4,1219.3 2089.3,954.4 2094.8,946.8 2448.1,1211.7 						"/>
					</g>
					<g>
						<polygon class="st7" points="2225.2,1126.4 1987.3,948 1990.8,943.6 2228.5,1121.9 						"/>
					</g>
					<g>
						<g>
							<polygon class="st13" points="2492,1239.5 1989.7,865.6 2033.1,854.4 2535.4,1228.4 							"/>
						</g>
					</g>
					<g>
						<polygon class="st26" points="2450.3,1047.4 1948,673.4 1991.4,662.3 2493.7,1036.2 						"/>
					</g>
					<g>
						<polygon class="st9" points="2346.6,1073.5 1997.1,811.3 1999.3,808.3 2348.9,1070.5 						"/>
					</g>
					<g>
						<polygon class="st12" points="2386.1,1139.2 2036.5,877 2038.7,874 2388.4,1136.1 						"/>
					</g>
					<g>
						<polygon class="st27" points="2288.1,863.2 1938.5,601 1940.7,598 2290.3,860.2 						"/>
					</g>
					<g>
						<polygon class="st3" points="2458.3,1033.8 2108.6,771.6 2110.9,768.7 2460.5,1030.8 						"/>
					</g>
					<polygon class="st14" points="2398.8,1084.4 2177.9,918.6 2178.2,873.8 2441.8,1071.4 					"/>
					<polygon class="st14" points="2530.9,1057 2309.9,891.3 2310.3,846.4 2573.8,1044 					"/>
					<polygon class="st29" points="2244.8,1319.5 2163.9,1258.8 2164,1242.4 2260.5,1314.8 					"/>
					<polygon class="st30" points="2357.8,1270.3 2276.9,1209.6 2277,1193.2 2373.6,1265.6 					"/>
					<polygon class="st30" points="2289,1277.6 2208,1216.9 2208.1,1200.4 2304.6,1272.8 					"/>
				</g>
				<g>
					<g>
						<polygon class="st31" points="2196.5,1383.8 1843.2,1119 1848.8,1111.4 2202.1,1376.3 						"/>
					</g>
					<g>
						<polygon class="st32" points="1992.5,1278.5 1754.7,1100.2 1758.1,1095.7 1996,1274 						"/>
					</g>
					<g>
						<g>
							<polygon class="st19" points="2259.4,1391.6 1757.2,1017.7 1800.5,1006.4 2302.7,1380.4 							"/>
						</g>
					</g>
					<g>
						<polygon class="st15" points="2217.7,1199.5 1715.5,825.5 1758.8,814.3 2261,1188.3 						"/>
					</g>
					<g>
						<polygon class="st7" points="2114,1225.6 1764.4,963.4 1766.7,960.4 2116.3,1222.6 						"/>
					</g>
					<g>
						<polygon class="st33" points="2153.6,1291.3 1803.9,1029.1 1806.1,1026.1 2155.8,1288.2 						"/>
					</g>
					<g>
						<polygon class="st6" points="2055.4,1015.3 1705.8,753.1 1708.1,750 2057.7,1012.3 						"/>
					</g>
					<g>
						<polygon class="st14" points="2225.7,1185.9 1876,923.7 1878.2,920.7 2227.9,1182.9 						"/>
					</g>
					<polygon class="st2" points="2166.2,1236.4 1945.2,1070.7 1945.6,1025.8 2209.2,1223.5 					"/>
					<polygon class="st10" points="2344.3,1230 2123.3,1064.2 2123.7,1019.4 2387.3,1217.1 					"/>
				</g>
			</g>
			<g>
				<g>
					<g>
						<polygon class="st0" points="1453.4,1228.7 1727.7,1434.4 1732.1,1428.6 1457.8,1222.9 						"/>
					</g>
					<g>
						<polygon class="st18" points="1576.3,1357.8 1761,1496.4 1763.6,1492.8 1578.9,1354.3 						"/>
					</g>
					<g>
						<g>
							<polygon class="st8" points="1433.9,1183.4 1821.9,1476.6 1820.8,1441.8 1432.8,1148.7 							"/>
						</g>
					</g>
					<g>
						<polygon class="st8" points="1586.2,1172.8 1974.2,1465.9 1973.1,1431.1 1585.1,1138 						"/>
					</g>
					<g>
						<polygon class="st20" points="1589.3,1255.7 1860.8,1459.4 1862.6,1457.1 1591,1253.4 						"/>
					</g>
					<g>
						<polygon class="st17" points="1531.7,1240.6 1803.3,1444.2 1805,1441.9 1533.5,1238.2 						"/>
					</g>
					<g>
						
							<rect x="1894" y="1184.6" transform="matrix(0.6 -0.8 0.8 0.6 -325.2754 2058.1382)" class="st20" width="2.9" height="339.4"/>
					</g>
					<g>
						
							<rect x="1729.8" y="1094.9" transform="matrix(0.5999 -0.8 0.8 0.5999 -319.0774 1890.9921)" class="st31" width="2.9" height="339.3"/>
					</g>
					<polygon class="st1" points="1569.9,1219.2 1741.5,1347.9 1774.8,1337.8 1570.2,1184.4 					"/>
					<polygon class="st19" points="1536,1085 1707.6,1213.8 1740.9,1203.7 1536.3,1050.2 					"/>
				</g>
				<g>
					<g>
						<polygon class="st1" points="1948.5,1364.5 1674.2,1158.8 1678.6,1152.9 1952.9,1358.5 						"/>
					</g>
					<g>
						<polygon class="st31" points="1784.1,1300.4 1599.4,1161.9 1602,1158.5 1786.7,1296.9 						"/>
					</g>
					<g>
						<g>
							<polygon class="st10" points="1991.2,1388.3 1601.2,1097.9 1634.9,1089.2 2025,1379.7 							"/>
						</g>
					</g>
					<g>
						<polygon class="st12" points="1958.9,1239.1 1568.9,948.7 1602.5,940 1992.6,1230.4 						"/>
					</g>
					<g>
						<polygon class="st33" points="1878.4,1259.4 1606.9,1055.7 1608.6,1053.4 1880.1,1257.1 						"/>
					</g>
					<g>
						<polygon class="st32" points="1909,1310.4 1637.5,1106.7 1639.3,1104.4 1910.8,1308.1 						"/>
					</g>
					<g>
						<polygon class="st21" points="1832.9,1096 1561.4,892.4 1563.1,890.1 1834.6,1093.7 						"/>
					</g>
					<g>
						<polygon class="st19" points="1965.1,1228.6 1693.5,1024.9 1695.3,1022.6 1966.8,1226.2 						"/>
					</g>
					<polygon class="st8" points="1918.9,1267.8 1747.3,1139.1 1747.6,1104.2 1952.3,1257.7 					"/>
					<polygon class="st5" points="2007.1,1237.2 1835.5,1108.5 1835.8,1073.7 2040.5,1227.1 					"/>
				</g>
				<g>
					<g>
						<polygon class="st5" points="1686.6,1340.4 1412.4,1134.7 1416.7,1128.8 1691,1334.5 						"/>
					</g>
					<g>
						<polygon class="st32" points="1603.3,1289.3 1418.7,1150.9 1421.4,1147.4 1606,1285.9 						"/>
					</g>
					<g>
						<g>
							<polygon class="st33" points="1810.7,1377.3 1420.6,1086.8 1454.2,1078.1 1844.3,1368.5 							"/>
						</g>
					</g>
					<g>
						<polygon class="st13" points="1682.8,1092.1 1477.3,939 1495,934.4 1700.5,1087.5 						"/>
					</g>
					<g>
						<polygon class="st4" points="1697.8,1248.3 1426.2,1044.6 1428,1042.3 1699.5,1245.9 						"/>
					</g>
					<g>
						<polygon class="st2" points="1728.4,1299.2 1456.9,1095.6 1458.6,1093.3 1730.1,1296.9 						"/>
					</g>
					<g>
						<polygon class="st3" points="1652.2,1084.9 1380.8,881.3 1382.5,879 1654,1082.6 						"/>
					</g>
					<g>
						<polygon class="st7" points="1784.4,1217.5 1512.9,1013.8 1514.7,1011.5 1786.2,1215.1 						"/>
					</g>
					<polygon class="st10" points="1738.2,1256.6 1566.7,1128 1566.9,1093.1 1771.6,1246.7 					"/>
					<polygon class="st5" points="1876.6,1251.6 1705,1123 1705.3,1088.2 1909.9,1241.6 					"/>
				</g>
				<g>
					<g>
						<polygon class="st18" points="2114,1532.3 1839.8,1326.6 1844.1,1320.7 2118.4,1526.3 						"/>
					</g>
					<g>
						<polygon class="st29" points="1945.3,1460.1 1760.6,1321.7 1763.3,1318.2 1947.9,1456.6 						"/>
					</g>
					<g>
						<g>
							<polygon class="st20" points="2152.5,1548 1762.5,1257.6 1796.2,1248.9 2186.2,1539.3 							"/>
						</g>
					</g>
					<g>
						<polygon class="st32" points="2120.1,1398.7 1730.1,1108.4 1763.8,1099.7 2153.8,1390.1 						"/>
					</g>
					<g>
						
							<rect x="1903.3" y="1146.4" transform="matrix(0.6001 -0.7999 0.7999 0.6001 -291.1064 2049.8789)" class="st17" width="2.9" height="339.4"/>
					</g>
					<g>
						<polygon class="st30" points="2070.4,1470.1 1798.8,1266.4 1800.5,1264.1 2072,1467.8 						"/>
					</g>
					<g>
						<polygon class="st33" points="1994.2,1255.7 1722.6,1052.1 1724.4,1049.8 1995.9,1253.5 						"/>
					</g>
					<g>
						<polygon class="st17" points="2126.3,1388.3 1854.8,1184.6 1856.5,1182.3 2128.1,1385.9 						"/>
					</g>
					<polygon class="st30" points="2080.1,1427.5 1908.6,1298.8 1908.8,1264 2113.5,1417.4 					"/>
					<polygon class="st30" points="2182.7,1406.3 2011.1,1277.6 2011.4,1242.6 2216.1,1396.2 					"/>
					<polygon class="st34" points="1960.5,1610.1 1897.7,1563 1897.8,1550.2 1972.8,1606.4 					"/>
					<polygon class="st34" points="2048.3,1571.9 1985.5,1524.8 1985.6,1512 2060.6,1568.3 					"/>
					<polygon class="st34" points="1994.8,1577.6 1932,1530.4 1932.1,1517.6 2007.1,1573.9 					"/>
				</g>
				<g>
					<g>
						<polygon class="st35" points="1923,1660.1 1648.7,1454.4 1653,1448.4 1927.3,1654.2 						"/>
					</g>
					<g>
						<polygon class="st35" points="1764.6,1578.2 1580,1439.8 1582.6,1436.3 1767.3,1574.7 						"/>
					</g>
					<g>
						<g>
							<polygon class="st18" points="1971.9,1666.1 1581.8,1375.7 1615.5,1366.9 2005.6,1657.4 							"/>
						</g>
					</g>
					<g>
						<polygon class="st0" points="1939.5,1516.9 1549.5,1226.5 1583.1,1217.8 1973.2,1508.2 						"/>
					</g>
					<g>
						<polygon class="st29" points="1859,1537.1 1587.5,1333.7 1589.2,1331.2 1860.7,1534.8 						"/>
					</g>
					<g>
						<polygon class="st18" points="1889.6,1588.1 1618.1,1384.5 1619.9,1382.2 1891.4,1585.9 						"/>
					</g>
					<g>
						
							<rect x="1677.2" y="1101.2" transform="matrix(0.6 -0.8 0.8 0.6 -345.2311 1851.3148)" class="st31" width="2.9" height="339.4"/>
					</g>
					<g>
						<polygon class="st29" points="1945.7,1506.3 1674.2,1302.7 1675.9,1300.4 1947.4,1504 						"/>
					</g>
					<polygon class="st35" points="1899.5,1545.6 1727.9,1416.9 1728.2,1382 1932.9,1535.5 					"/>
					<polygon class="st35" points="2037.9,1540.6 1866.2,1411.9 1866.5,1377.1 2071.2,1530.6 					"/>
				</g>
			</g>
		</g>
	</g>
</g>
</svg>
