<?xml version="1.0" encoding="utf-8"?>
<!-- Generator: Adobe Illustrator 22.0.1, SVG Export Plug-In . SVG Version: 6.00 Build 0)  -->
<svg version="1.1" xmlns="http://www.w3.org/2000/svg" xmlns:xlink="http://www.w3.org/1999/xlink" x="0px" y="0px"
	 viewBox="0 0 344 202.9" style="enable-background:new 0 0 344 202.9;" xml:space="preserve">
<style type="text/css">
	.st0{fill:#FFFFFF;}
</style>
<g id="Capa_2">
</g>
<g id="Capa_1">
	<g>
		<g>
			<path class="st0" d=""/>
			<path class="st0" d="M51.2,0c25,0,45.7,18.1,49.8,41.9H90.7c-4-18.2-20.2-31.8-39.5-31.8c-22.3,0-40.4,18.1-40.4,40.4
				C10.8,72.9,28.9,91,51.2,91c21.2,0,38.5-16.3,40.3-37h10.1c-1.8,26.3-23.7,47.1-50.4,47.1c-27.9,0-50.5-22.6-50.5-50.5
				C0.7,22.6,23.3,0,51.2,0z"/>
			<path class="st0" d="M51.2,18.5c15.7,0,28.8,11.3,31.6,26.3H71.5c-2.5-8.8-10.7-15.3-20.3-15.3c-11.6,0-21.1,9.4-21.1,21.1
				c0,11.6,9.4,21.1,21.1,21.1c11.4,0,20.7-9.1,21.1-20.4h11c-0.4,17.4-14.6,31.4-32.1,31.4c-17.7,0-32.1-14.4-32.1-32.1
				S33.5,18.5,51.2,18.5z"/>
			<path class="st0" d="M0,83.4L0,83.4c9.8,17.9,28.7,30,50.5,30c21.8,0,40.7-12.1,50.5-30l0,0V159H86v-42.6
				c-23.5,22.6-47,22.6-70.5,0V159H0V83.4z"/>
		</g>
	</g>
</g>
</svg>
