<svg xmlns="http://www.w3.org/2000/svg" viewBox="0 0 800 318.5"><linearGradient id="a" gradientUnits="userSpaceOnUse" x1="251.754" y1="562.045" x2="281.387" y2="-331.185" gradientTransform="rotate(90 176.992 0)"><stop offset="0" stop-color="#fff"/><stop offset=".326" stop-color="#b8b7b7"/><stop offset=".656" stop-color="#706e6e"/><stop offset=".778" stop-color="#575454"/><stop offset="1"/></linearGradient><path d="M83.6 100.5h73.9L182 76h93.3v18.7h132.8l18.4-19.8h56.7v21.7h92.7c.4 1.6 1.9 2.8 3.7 2.8 2.1 0 3.8-1.7 3.8-3.8 0-2.1-1.7-3.8-3.8-3.8-1.8 0-3.2 1.2-3.7 2.8h-90.6V72.9h-59.7l-18.4 19.8h-130V74h-96.1l-24.5 24.5h-73c-.4-1.7-1.9-2.9-3.7-2.9-2.1 0-3.8 1.7-3.8 3.8 0 2.1 1.7 3.9 3.8 3.9 1.7 0 3.2-1.2 3.7-2.8z" fill="url(#a)"/><linearGradient id="b" gradientUnits="userSpaceOnUse" x1="274.49" y1="-218.594" x2="271.293" y2="753.12" gradientTransform="rotate(90 176.992 0)"><stop offset="0" stop-color="#fff"/><stop offset=".326" stop-color="#b8b7b7"/><stop offset=".656" stop-color="#706e6e"/><stop offset=".778" stop-color="#575454"/><stop offset="1"/></linearGradient><path d="M96.7 108.9h61l24.5-24.5h83.6v21.5h147.5L435 84.4h38.2v21.5h206.4c.5 1.6 1.9 2.8 3.7 2.8 2.1 0 3.8-1.7 3.8-3.8 0-2.1-1.7-3.8-3.8-3.8-1.8 0-3.2 1.2-3.7 2.8H475.3V82.4h-41.1l-21.7 21.5H267.8V82.4h-86.5l-24.5 24.5h-60c-.4-1.7-1.9-3-3.8-3-2.1 0-3.8 1.7-3.8 3.8 0 2.1 1.7 3.8 3.8 3.8 1.7 0 3.1-1.1 3.7-2.6z" fill="url(#b)"/><linearGradient id="c" gradientUnits="userSpaceOnUse" x1="203.75" y1="-351.236" x2="198.988" y2="1096.293" gradientTransform="rotate(90 176.992 0)"><stop offset="0" stop-color="#fff"/><stop offset=".326" stop-color="#b8b7b7"/><stop offset=".656" stop-color="#706e6e"/><stop offset=".778" stop-color="#575454"/><stop offset="1"/></linearGradient><path d="M195.9 37.3H253l24.5-24.5H348v21.5h451.2v-2H350.1V10.8h-73.4l-24.5 24.5H196c-.5-1.6-1.9-2.8-3.7-2.8-2.1 0-3.8 1.7-3.8 3.8 0 2.1 1.7 3.8 3.8 3.8 1.7.1 3.2-1.1 3.6-2.8z" fill="url(#c)"/><linearGradient id="d" gradientUnits="userSpaceOnUse" x1="339.861" y1="-132.27" x2="353.008" y2="1269.197" gradientTransform="rotate(90 176.992 0)"><stop offset="0" stop-color="#fff"/><stop offset=".619" stop-color="#b8b7b7"/><stop offset=".656" stop-color="#706e6e"/><stop offset=".778" stop-color="#575454"/><stop offset="1"/></linearGradient><path d="M91.1 208.9h70l24.5-24.5h137.6v-60.8h476.5v-2H321.1v60.8H184.7l-24.5 24.5H91.1c-.5-1.6-1.9-2.8-3.7-2.8-2.1 0-3.8 1.7-3.8 3.8 0 2.1 1.7 3.8 3.8 3.8 1.8 0 3.3-1.2 3.7-2.8z" fill="url(#d)"/><linearGradient id="e" gradientUnits="userSpaceOnUse" x1="352.895" y1="-261.21" x2="348.776" y2="990.656" gradientTransform="rotate(90 176.992 0)"><stop offset="0" stop-color="#fff"/><stop offset=".326" stop-color="#b8b7b7"/><stop offset=".656" stop-color="#706e6e"/><stop offset=".778" stop-color="#575454"/><stop offset="1"/></linearGradient><path d="M108.3 217.2h57l24.5-24.5h142.8v-60.8h467.1v-2H330.5v60.8H188.9l-24.5 24.5h-56.1c-.5-1.6-1.9-2.8-3.7-2.8-2.1 0-3.8 1.7-3.8 3.8s1.7 3.8 3.8 3.8c1.7 0 3.2-1.2 3.7-2.8z" fill="url(#e)"/><linearGradient id="f" gradientUnits="userSpaceOnUse" x1="317.82" y1="675.31" x2="356.208" y2="-481.828" gradientTransform="rotate(90 176.992 0)"><stop offset="0" stop-color="#fff"/><stop offset=".326" stop-color="#b8b7b7"/><stop offset=".656" stop-color="#706e6e"/><stop offset=".778" stop-color="#575454"/><stop offset="1"/></linearGradient><path d="M365.3 141.2c0 1.8 1.2 3.2 2.8 3.7v20.3h35.5l24.5-24.5h96v21.5H800v-2H526.2v-21.5h-98.9l-24.5 24.5h-32.6v-18.3c1.6-.4 2.8-1.9 2.8-3.7 0-2.1-1.7-3.9-3.8-3.9-2.2 0-3.9 1.8-3.9 3.9z" fill="url(#f)"/><linearGradient id="g" gradientUnits="userSpaceOnUse" x1="337.531" y1="-48.279" x2="335.744" y2="1505.729" gradientTransform="rotate(90 176.992 0)"><stop offset="0" stop-color="#fff"/><stop offset=".326" stop-color="#b8b7b7"/><stop offset=".656" stop-color="#706e6e"/><stop offset=".778" stop-color="#575454"/><stop offset="1"/></linearGradient><path d="M431.4 147l-24.5 24.5h-48.6v-11.6c1.6-.4 2.8-1.9 2.8-3.7 0-2.1-1.7-3.8-3.8-3.8s-3.8 1.7-3.8 3.8c0 1.8 1.2 3.2 2.8 3.7v13.6h51.5l24.5-24.4h83.5v21.5h283.4v-2H517.9v-21.5h-86.5v-.1z" fill="url(#g)"/><linearGradient id="h" gradientUnits="userSpaceOnUse" x1="337.59" y1="663.125" x2="374.429" y2="-447.297" gradientTransform="rotate(90 176.992 0)"><stop offset="0" stop-color="#fff"/><stop offset=".326" stop-color="#b8b7b7"/><stop offset=".656" stop-color="#706e6e"/><stop offset=".778" stop-color="#575454"/><stop offset="1"/></linearGradient><path d="M434.8 156.3l-24.5 24.5h-64.2c-.5-1.6-1.9-2.8-3.7-2.8-2.1 0-3.8 1.7-3.8 3.8 0 2.1 1.7 3.8 3.8 3.8 1.8 0 3.2-1.2 3.7-2.8h65l24.5-24.5h70.6v21.5h292.4v-2H508.3v-21.5h-73.5z" fill="url(#h)"/><linearGradient id="i" gradientUnits="userSpaceOnUse" x1="351.735" y1="-138.161" x2="362.734" y2="1034.181" gradientTransform="rotate(90 176.992 0)"><stop offset="0" stop-color="#fff"/><stop offset=".326" stop-color="#b8b7b7"/><stop offset=".656" stop-color="#706e6e"/><stop offset=".778" stop-color="#575454"/><stop offset="1"/></linearGradient><path d="M452.8 168.5c-.5-1.6-1.9-2.8-3.7-2.8-2.1 0-3.8 1.7-3.8 3.8 0 2.1 1.7 3.8 3.8 3.8 1.8 0 3.2-1.2 3.7-2.8h42.7V192h303.9v-2H497.5v-21.5h-44.7z" fill="url(#i)"/><linearGradient id="j" gradientUnits="userSpaceOnUse" x1="367.081" y1="-434.099" x2="362.836" y2="856.295" gradientTransform="rotate(90 176.992 0)"><stop offset="0" stop-color="#fff"/><stop offset=".326" stop-color="#b8b7b7"/><stop offset=".656" stop-color="#706e6e"/><stop offset=".778" stop-color="#575454"/><stop offset="1"/></linearGradient><path d="M440 176.9c-.4-1.6-1.9-2.8-3.7-2.8-2.1 0-3.8 1.7-3.8 3.8 0 2.1 1.7 3.8 3.8 3.8 1.8 0 3.2-1.2 3.7-2.8h47.2v21.5h312.4v-2H489.3v-21.5H440z" fill="url(#j)"/><linearGradient id="k" gradientUnits="userSpaceOnUse" x1="376.297" y1="-413.042" x2="372.155" y2="846.089" gradientTransform="rotate(90 176.992 0)"><stop offset="0" stop-color="#fff"/><stop offset=".326" stop-color="#b8b7b7"/><stop offset=".656" stop-color="#706e6e"/><stop offset=".778" stop-color="#575454"/><stop offset="1"/></linearGradient><path d="M430.8 186.2c-.5-1.6-1.9-2.8-3.7-2.8-2.1 0-3.8 1.7-3.8 3.8 0 2.1 1.7 3.8 3.8 3.8 1.8 0 3.2-1.2 3.7-2.8h46.8v21.5H800v-2H479.6v-21.5h-48.8z" fill="url(#k)"/><linearGradient id="l" gradientUnits="userSpaceOnUse" x1="381.503" y1="-103.087" x2="393.13" y2="1136.196" gradientTransform="rotate(90 176.992 0)"><stop offset="0" stop-color="#fff"/><stop offset=".326" stop-color="#b8b7b7"/><stop offset=".656" stop-color="#706e6e"/><stop offset=".778" stop-color="#575454"/><stop offset="1"/></linearGradient><path d="M392.8 196.1v23.6h60.3v-12.2h-34.4c-.4-1.6-1.9-2.8-3.7-2.8-2.1 0-3.8 1.7-3.8 3.8 0 2.1 1.7 3.8 3.8 3.8 1.8 0 3.2-1.2 3.7-2.8H451v8.1h-56.2v-19.5h72.1v21.5h332.7v-2H468.9v-21.5h-76.1z" fill="url(#l)"/><linearGradient id="m" gradientUnits="userSpaceOnUse" x1="261.325" y1="856.029" x2="304.553" y2="-447" gradientTransform="rotate(90 176.992 0)"><stop offset="0" stop-color="#fff"/><stop offset=".326" stop-color="#b8b7b7"/><stop offset=".656" stop-color="#706e6e"/><stop offset=".778" stop-color="#575454"/><stop offset="1"/></linearGradient><path d="M107.9 117H165l24.5-24.5h70.6V114h539.6v-2H262V90.5h-73.4L164.1 115h-56.2c-.5-1.6-1.9-2.8-3.7-2.8-2.1 0-3.9 1.7-3.9 3.8 0 2.1 1.7 3.8 3.9 3.8 1.7.1 3.2-1.1 3.7-2.8z" fill="url(#m)"/><linearGradient id="n" gradientUnits="userSpaceOnUse" x1="223.275" y1="684.482" x2="260.936" y2="-450.734" gradientTransform="rotate(90 176.992 0)"><stop offset="0" stop-color="#fff"/><stop offset=".326" stop-color="#b8b7b7"/><stop offset=".656" stop-color="#706e6e"/><stop offset=".778" stop-color="#575454"/><stop offset="1"/></linearGradient><path d="M290.9 69.5h101L416.4 45h96v21.5h286.9v-2H514.5V43h-98.9l-24.5 24.5H290.9c-.4-1.6-1.9-2.8-3.7-2.8-2.1 0-3.8 1.7-3.8 3.8 0 2.1 1.7 3.8 3.8 3.8 1.8 0 3.2-1.2 3.7-2.8z" fill="url(#n)"/><linearGradient id="o" gradientUnits="userSpaceOnUse" x1="244.488" y1="-294.249" x2="240.893" y2="798.33" gradientTransform="rotate(90 176.992 0)"><stop offset="0" stop-color="#fff"/><stop offset=".326" stop-color="#b8b7b7"/><stop offset=".656" stop-color="#706e6e"/><stop offset=".778" stop-color="#575454"/><stop offset="1"/></linearGradient><path d="M309.7 73c-2.1 0-3.8 1.7-3.8 3.8 0 2.1 1.7 3.8 3.8 3.8 1.8 0 3.2-1.2 3.7-2.8h82.7l24.5-24.5h83.5v21.5h295.4v-2H506.2V51.3h-86.5l-24.5 24.5h-81.9c-.4-1.6-1.8-2.8-3.6-2.8z" fill="url(#o)"/><linearGradient id="p" gradientUnits="userSpaceOnUse" x1="241.296" y1="675.336" x2="279.067" y2="-463.185" gradientTransform="rotate(90 176.992 0)"><stop offset="0" stop-color="#fff"/><stop offset=".326" stop-color="#b8b7b7"/><stop offset=".656" stop-color="#706e6e"/><stop offset=".778" stop-color="#575454"/><stop offset="1"/></linearGradient><path d="M423.1 60.6l-24.5 24.5h-65.5c-.4-1.6-1.9-2.8-3.7-2.8-2.1 0-3.8 1.7-3.8 3.8 0 2.1 1.7 3.8 3.8 3.8 1.8 0 3.2-1.2 3.7-2.8h66.3l24.5-24.5h70.6v21.5h304.4v-2H496.6V60.6h-73.5z" fill="url(#p)"/><linearGradient id="q" gradientUnits="userSpaceOnUse" x1="443.282" y1="5.263" x2="450.356" y2="759.232" gradientTransform="rotate(90 176.992 0)"><stop offset="0" stop-color="#fff"/><stop offset=".326" stop-color="#b8b7b7"/><stop offset=".656" stop-color="#706e6e"/><stop offset=".778" stop-color="#575454"/><stop offset="1"/></linearGradient><path d="M443.6 257.3V276h132.9l18.4-19.8h56.8v21.7h92.7c.5 1.6 1.9 2.8 3.7 2.8 2.1 0 3.8-1.7 3.8-3.8s-1.7-3.8-3.8-3.8c-1.8 0-3.2 1.2-3.7 2.8h-90.6v-21.7h-59.7L575.7 274h-130v-18.7h-96.2L325 279.8h-73.2s0 .3 0 0c-.2-1-2.1-3-4.2-.7-.2.2-.6 1-.6 1.7 0 .5.4 1.6.6 1.8 1.8 2 4 .2 4.1-.5 0-.1.1-.3.1-.3h73.9l24.5-24.5h93.4z" fill="url(#q)"/><linearGradient id="r" gradientUnits="userSpaceOnUse" x1="447.838" y1="568.552" x2="477.472" y2="-324.683" gradientTransform="rotate(90 176.992 0)"><stop offset="0" stop-color="#fff"/><stop offset=".326" stop-color="#b8b7b7"/><stop offset=".656" stop-color="#706e6e"/><stop offset=".778" stop-color="#575454"/><stop offset="1"/></linearGradient><path d="M434.1 265.7v21.5h147.7l21.7-21.5h38.2v21.5h136.4c.5 1.6 1.9 2.8 3.7 2.8 2.1 0 3.8-1.7 3.8-3.8s-1.7-3.8-3.8-3.8c-1.8 0-3.2 1.2-3.7 2.8H643.7v-21.5h-41.1l-21.7 21.5H436.2v-21.5h-86.5l-24.5 24.5h-63.7v2h64.6l24.5-24.5h83.5z" fill="url(#r)"/><linearGradient id="s" gradientUnits="userSpaceOnUse" x1="464.626" y1="-233.974" x2="461.503" y2="715.227" gradientTransform="rotate(90 176.992 0)"><stop offset="0" stop-color="#fff"/><stop offset=".326" stop-color="#b8b7b7"/><stop offset=".656" stop-color="#706e6e"/><stop offset=".778" stop-color="#575454"/><stop offset="1"/></linearGradient><path d="M276.3 298.3h57.1l24.5-24.5h70.6v21.5h370.8v-2H430.6v-21.5h-73.4l-24.5 24.5h-56.4c-.4-1.6-1.9-2.8-3.7-2.8-2.1 0-3.8 1.7-3.8 3.8s1.7 3.8 3.8 3.8c1.8 0 3.3-1.2 3.7-2.8z" fill="url(#s)"/><linearGradient id="t" gradientUnits="userSpaceOnUse" x1="401.722" y1="-131.204" x2="408.185" y2="557.731" gradientTransform="rotate(90 176.992 0)"><stop offset="0" stop-color="#fff"/><stop offset=".326" stop-color="#b8b7b7"/><stop offset=".656" stop-color="#706e6e"/><stop offset=".778" stop-color="#575454"/><stop offset="1"/></linearGradient><path d="M459.3 250.8h101l24.5-24.5h96v21.5h118.9v-2H682.8v-21.5h-98.9l-.1.1H367.6v-21.5h-98.9l-24.5 24.5h-69.1c-.5-1.6-1.9-2.8-3.7-2.8-2.1 0-3.9 1.7-3.9 3.8s1.7 3.8 3.9 3.8c1.8 0 3.2-1.2 3.7-2.8h70l24.5-24.5h96v21.5h216.2l-6.3 6.3H359.4v-21.5h-86.5l-24.5 24.5h-56.1c-.5-1.6-1.9-2.8-3.7-2.8-2.1 0-3.9 1.7-3.9 3.8s1.7 3.8 3.9 3.8c1.8 0 3.2-1.2 3.7-2.8h57l24.5-24.5h83.6v21.5h216.1l-7.3 7.3H349.8v-21.5h-73.4L251.9 245h-56.2c-.5-1.6-1.9-2.8-3.7-2.8-2.1 0-3.8 1.7-3.8 3.8s1.7 3.8 3.8 3.8c1.8 0 3.2-1.2 3.7-2.8h57.1l24.5-24.5h70.6V244h216.3l-4.7 4.7H459.3c-.5-1.6-1.9-2.8-3.7-2.8-2.1 0-3.8 1.7-3.8 3.8s1.7 3.8 3.8 3.8c1.8.1 3.3-1.1 3.7-2.7z" fill="url(#t)"/><linearGradient id="u" gradientUnits="userSpaceOnUse" x1="424.552" y1="46.894" x2="423.367" y2="1077.054" gradientTransform="rotate(90 176.992 0)"><stop offset="0" stop-color="#fff"/><stop offset=".326" stop-color="#b8b7b7"/><stop offset=".656" stop-color="#706e6e"/><stop offset=".778" stop-color="#575454"/><stop offset="1"/></linearGradient><path d="M478.1 254.3c-2.1 0-3.8 1.7-3.8 3.8s1.7 3.8 3.8 3.8c1.8 0 3.2-1.2 3.7-2.8h82.7l24.5-24.5h83.6v21.5H800v-2H674.7v-21.5h-86.5l-24.5 24.5h-81.9c-.4-1.6-1.9-2.8-3.7-2.8z" fill="url(#u)"/><linearGradient id="v" gradientUnits="userSpaceOnUse" x1="430.331" y1="61.133" x2="436.152" y2="681.584" gradientTransform="rotate(90 176.992 0)"><stop offset="0" stop-color="#fff"/><stop offset=".326" stop-color="#b8b7b7"/><stop offset=".656" stop-color="#706e6e"/><stop offset=".778" stop-color="#575454"/><stop offset="1"/></linearGradient><path d="M591.6 241.9l-24.5 24.5h-65.5c-.4-1.6-1.9-2.8-3.7-2.8-2.1 0-3.8 1.7-3.8 3.8s1.7 3.8 3.8 3.8c1.8 0 3.2-1.2 3.7-2.8H568l24.5-24.5H663v21.6h137.4v-2H665V242l-73.4-.1z" fill="url(#v)"/></svg>