<svg xmlns="http://www.w3.org/2000/svg" viewBox="0 0 512 512"><g fill="#53add1"><path d="M441.217 235.868l-37.982-8.802 12.093-37.912-.879-.293c-14.881-4.96-31.125-9.049-48.264-12.282-6.656 54.889-53.528 97.558-110.184 97.558-55.875 0-102.231-41.501-109.884-95.295-17.267 3.639-33.567 8.144-48.424 13.509l11.073 34.715-38.004 8.807L0 366.342v79.397h84.333V311.805h343.333V445.74H512v-80.103l-70.783-129.769zM380.972 81.566c-18.27-40.058-54.956-69.109-98.135-77.711-17.809-3.548-35.865-3.548-53.674 0-43.179 8.602-79.865 37.653-98.135 77.711L94.475 161.71c44.649-14.98 101.279-23.544 160.609-24.199 58.917-.643 115.535 6.531 160.653 20.281l-34.765-76.226z"/><path d="M175.696 173.584c5.143 39.744 39.182 70.554 80.304 70.554 41.688 0 76.11-31.66 80.513-72.196-51.92-6.538-109.18-5.952-160.817 1.642zm-61.363 337.221h283.333v-169H114.333v169zM256 405.091l21.213 21.213L256 447.518l-21.213-21.213L256 405.091z"/></g></svg>