<?xml version="1.0"?>
<svg xmlns="http://www.w3.org/2000/svg" viewBox="0 0 64 64" width="512" height="512"><path d="m17 32c0-1.51 2.19-2.656 2.633-4.019.458-1.412-.624-3.623.231-4.8s3.308-.837 4.5-1.7 1.592-3.292 3-3.75c1.362-.443 3.126 1.269 4.636 1.269s3.274-1.712 4.637-1.269c1.412.458 1.829 2.895 3 3.751s3.631.513 4.5 1.7-.227 3.387.231 4.8c.442 1.362 2.632 2.508 2.632 4.018s-2.19 2.656-2.633 4.019c-.458 1.412.624 3.623-.231 4.8s-3.308.837-4.5 1.7-1.592 3.292-3 3.75c-1.362.443-3.126-1.269-4.636-1.269s-3.274 1.712-4.637 1.269c-1.412-.458-1.829-2.895-3-3.751s-3.631-.513-4.5-1.7.227-3.387-.231-4.8c-.442-1.362-2.632-2.508-2.632-4.018z" fill="#fcf05a"/><circle cx="32" cy="32" fill="#fdbd40" r="10"/><path d="m32 54a22 22 0 1 1 14.667-5.6l-1.334-1.49a19.948 19.948 0 1 0 -10.475 4.89l.284 1.98a22.186 22.186 0 0 1 -3.142.22z" fill="#aabece"/><path d="m32 60a28.008 28.008 0 0 1 -24.546-41.482l1.752.964a26 26 0 1 0 48.349 7.7l1.966-.368a28.025 28.025 0 0 1 -27.521 33.186z" fill="#aabece"/><path d="m51.379 14.667a26.008 26.008 0 0 0 -33-4.815l-1.049-1.7a28.012 28.012 0 0 1 35.54 5.181z" fill="#aabece"/><circle cx="12" cy="13" fill="#e9686a" r="4"/><circle cx="41" cy="51" fill="#7fcac9" r="3"/><circle cx="57" cy="20" fill="#fdbd40" r="4"/><g fill="#7d8d9c"><path d="m52 4h2v2h-2z"/><path d="m56 6h2v2h-2z"/><path d="m2 54h2v2h-2z"/><path d="m6 56h2v2h-2z"/><path d="m54 54h2v2h-2z"/><path d="m58 56h2v2h-2z"/></g></svg>
