<?xml version="1.0" encoding="iso-8859-1"?>
<!-- Generator: Adobe Illustrator 19.0.0, SVG Export Plug-In . SVG Version: 6.00 Build 0)  -->
<svg version="1.1" id="Layer_1" xmlns="http://www.w3.org/2000/svg" xmlns:xlink="http://www.w3.org/1999/xlink" x="0px" y="0px"
	 viewBox="0 0 512 512" style="enable-background:new 0 0 512 512;" xml:space="preserve">
<g>
	<path style="fill:#6B4425;" d="M304.552,17.655V8.828c0-4.873-3.955-8.828-8.828-8.828H172.138c-4.873,0-8.828,3.955-8.828,8.828
		v8.828H39.725c-9.754,0-17.655,7.901-17.655,17.655v459.034c0,9.754,7.901,17.655,17.655,17.655h388.414
		c9.754,0,17.655-7.901,17.655-17.655V35.31c0-9.754-7.901-17.655-17.655-17.655H304.552z"/>
	<path style="fill:#434C6D;" d="M295.724,70.621H172.137c-4.873,0-8.828-3.955-8.828-8.828V8.828c0-4.873,3.955-8.828,8.828-8.828
		h123.586c4.873,0,8.828,3.955,8.828,8.828v52.966C304.551,66.666,300.596,70.621,295.724,70.621"/>
	<path style="fill:#ECE8D8;" d="M304.552,52.966v8.828c0,4.873-3.955,8.828-8.828,8.828H172.138c-4.873,0-8.828-3.955-8.828-8.828
		v-8.828H66.207c-4.873,0-8.828,3.955-8.828,8.828v406.069c0,4.873,3.955,8.828,8.828,8.828h335.448
		c4.873,0,8.828-3.955,8.828-8.828V61.793c0-4.873-3.955-8.828-8.828-8.828H304.552z"/>
	<g>
		<path style="fill:#C9B693;" d="M233.931,344.276H101.518c-4.882,0-8.828-3.946-8.828-8.828c0-4.882,3.946-8.828,8.828-8.828
			h132.414c4.882,0,8.828,3.946,8.828,8.828C242.759,340.33,238.813,344.276,233.931,344.276"/>
		<path style="fill:#C9B693;" d="M233.931,388.414H101.518c-4.882,0-8.828-3.946-8.828-8.828c0-4.882,3.946-8.828,8.828-8.828
			h132.414c4.882,0,8.828,3.946,8.828,8.828C242.759,384.468,238.813,388.414,233.931,388.414"/>
		<path style="fill:#C9B693;" d="M233.931,432.552H101.518c-4.882,0-8.828-3.946-8.828-8.828c0-4.882,3.946-8.828,8.828-8.828
			h132.414c4.882,0,8.828,3.946,8.828,8.828C242.759,428.606,238.813,432.552,233.931,432.552"/>
	</g>
	<path style="fill:#EBB916;" d="M478.991,512H269.856c-8.43,0-13.683-9.145-9.437-16.428l104.572-179.253
		c4.211-7.23,14.654-7.23,18.873,0l104.563,179.253C492.673,502.855,487.421,512,478.991,512"/>
	<g>
		<path style="fill:#FFFFFF;" d="M375.173,450.207c-4.873,0-8.828-3.955-8.828-8.828v-70.621c0-4.873,3.955-8.828,8.828-8.828
			s8.828,3.955,8.828,8.828v70.621C384,446.252,380.046,450.207,375.173,450.207"/>
		<path style="fill:#FFFFFF;" d="M375.173,485.517c-2.295,0-4.59-0.971-6.268-2.56c-1.589-1.677-2.56-3.972-2.56-6.268
			c0-2.295,0.971-4.59,2.56-6.268c3.354-3.266,9.181-3.266,12.535,0c1.589,1.677,2.56,3.972,2.56,6.268
			c0,2.295-0.971,4.59-2.56,6.268C379.763,484.546,377.556,485.517,375.173,485.517"/>
	</g>
</g>
</svg>
