<?xml version="1.0" encoding="iso-8859-1"?>
<!-- Generator: Adobe Illustrator 19.0.0, SVG Export Plug-In . SVG Version: 6.00 Build 0)  -->
<svg version="1.1" id="Capa_1" xmlns="http://www.w3.org/2000/svg" xmlns:xlink="http://www.w3.org/1999/xlink" x="0px" y="0px"
	 viewBox="0 0 512 512" style="enable-background:new 0 0 512 512;" xml:space="preserve">
<g>
	<path style="fill:#FFB69E;" d="M198.541,176.514v18.431l-60.043,25.694c-10.226,4.375-14.97,16.21-10.595,26.436
		c4.388,10.259,16.24,14.957,26.436,10.595l72.373-30.956c7.454-3.189,12.269-10.536,12.218-18.644l-0.136-31.556L198.541,176.514
		L198.541,176.514z"/>
	<path style="fill:#FFB69E;" d="M238.554,149.095c-0.132-26.146-21.511-47.418-47.657-47.418h-25.986v40.277h25.987
		c4.05,0,7.36,3.295,7.381,7.371l0.262,45.62l-60.043,25.694c-10.226,4.375-14.97,16.21-10.595,26.436
		c4.388,10.259,16.24,14.957,26.436,10.595l72.373-30.956c7.454-3.189,12.269-10.536,12.218-18.644L238.554,149.095z"/>
	<circle style="fill:#FFB69E;" cx="137.012" cy="41.738" r="41.738"/>
</g>
<path style="fill:#343E6B;" d="M141.955,288.77v199.063c0,13.347,10.819,24.166,24.167,24.166s24.167-10.819,24.167-24.166V288.77
	H141.955z"/>
<path style="fill:#414B82;" d="M83.618,288.77v199.063c0,13.347,10.819,24.166,24.167,24.166s24.167-10.819,24.167-24.166V288.77
	H83.618z"/>
<path style="fill:#78BEFF;" d="M238.554,149.095c-0.132-26.146-21.511-47.418-47.657-47.418H83.618V294.67h106.67V141.954h0.609
	c4.05,0,7.36,3.295,7.381,7.371l0.262,37.215h40.252L238.554,149.095z"/>
<path style="fill:#52A1E8;" d="M238.554,149.095c-0.132-26.146-21.511-47.418-47.657-47.418h-53.888V294.67h53.278V141.954h0.609
	c4.05,0,7.36,3.295,7.381,7.371l0.262,37.215h40.252L238.554,149.095z"/>
<path style="fill:#FFB69E;" d="M92.144,221.442c-4.033-4.648-39.682-45.877-49.175-62.05c-0.59-1.004-1.091-2.058-1.499-3.149
	c-4.489-12.02-2.843-24.998,4.519-35.604c8.117-11.695,22.335-18.961,37.105-18.961h43.441l1.071-2.802
	c3.973-10.389,15.611-15.59,26.002-11.619c10.388,3.972,15.591,15.614,11.618,26.002l-39.063,102.176
	C120.763,229.566,102.154,232.976,92.144,221.442z M86.754,142.58c0,0,5.645,16.451,13.978,26.592l10.405-27.218L86.754,142.58z"/>
<path style="fill:#78BEFF;" d="M111.138,141.954l7.644-19.993c-5.62-5.006-9.21-12.29-9.745-20.284H83.094
	c-14.77,0-28.988,7.266-37.105,18.961c-7.361,10.606-9.007,23.584-4.519,35.604c0.408,1.091,0.909,2.145,1.499,3.149
	c5.229,8.907,12.29,18.056,23.735,31.867l30.858-25.893c0,0-7.271-17.677-10.809-22.786l0,0L111.138,141.954z"/>
<path style="fill:#343E6B;" d="M399.327,512c-13.419,0-24.299-10.878-24.299-24.299V293.483c0-13.419,10.878-24.299,24.299-24.299
	s24.299,10.878,24.299,24.299v194.219C423.625,501.121,412.747,512,399.327,512z"/>
<path style="fill:#414B82;" d="M340.671,512c-13.419,0-24.299-10.878-24.299-24.299V293.483c0-13.419,10.878-24.299,24.299-24.299
	c13.419,0,24.299,10.878,24.299,24.299v194.219C364.969,501.121,354.09,512,340.671,512z"/>
<path style="fill:#252D5C;" d="M473.013,146.697c-0.132-26.289-21.963-47.677-48.664-47.677c-13.184,0-92.587,0-108.705,0
	c-26.701,0-48.532,21.388-48.664,47.677c0,0.034,0,0.068,0,0.102v148.758c0,11.183,9.065,20.249,20.249,20.249
	c11.183,0,20.249-9.065,20.249-20.249V146.866c0.043-3.851,3.925-7.349,8.168-7.349h0.729v153.965h107.251V139.517h0.724
	c4.243,0,8.126,3.499,8.168,7.349v148.691c0,11.183,9.065,20.249,20.249,20.249c11.183,0,20.249-9.065,20.249-20.249V146.798
	C473.014,146.765,473.014,146.731,473.013,146.697z"/>
<path style="fill:#1B224A;" d="M473.013,146.697c-0.132-26.289-21.963-47.677-48.664-47.677c-6.42,0-47.973,0-54.357,0v194.463
	h53.633V139.517h0.724c4.243,0,8.126,3.499,8.168,7.349v148.691c0,11.183,9.065,20.249,20.249,20.249
	c11.183,0,20.249-9.065,20.249-20.249V146.798C473.014,146.765,473.014,146.731,473.013,146.697z"/>
<g>
	<path style="fill:#FFFFFF;" d="M266.973,285.113v10.444c0,11.183,9.065,20.249,20.249,20.249c11.183,0,20.249-9.065,20.249-20.249
		v-10.444H266.973z"/>
	<path style="fill:#FFFFFF;" d="M432.511,285.113v10.444c0,11.183,9.065,20.249,20.249,20.249c11.183,0,20.249-9.065,20.249-20.249
		v-10.444H432.511z"/>
</g>
<g>
	<path style="fill:#FFB69E;" d="M266.973,295.037v0.521c0,11.183,9.065,20.249,20.249,20.249c11.183,0,20.249-9.065,20.249-20.249
		v-0.521H266.973z"/>
	<path style="fill:#FFB69E;" d="M432.511,295.037v0.521c0,11.183,9.065,20.249,20.249,20.249c11.183,0,20.249-9.065,20.249-20.249
		v-0.521H432.511z"/>
	<circle style="fill:#FFB69E;" cx="369.989" cy="44.137" r="41.966"/>
</g>
<polygon style="fill:#FFFFFF;" points="339.097,99.02 369.993,180.1 400.896,99.02 "/>
<path style="fill:#CD2D23;" d="M383.431,126.622l-6.864-12.483l5.916-10.758c1.076-1.957-0.342-4.359-2.578-4.359h-19.831
	c-2.233,0-3.655,2.4-2.578,4.359l5.936,10.794l-6.845,12.449c-0.948,1.724-1.256,3.727-0.871,5.656l4.222,21.433l10.053,26.389
	l10.063-26.394l4.246-21.426C384.688,130.349,384.38,128.345,383.431,126.622z"/>
<path style="fill:#B71A16;" d="M383.431,126.622l-6.864-12.483l5.916-10.758c1.076-1.957-0.341-4.359-2.578-4.359h-9.912v81.063
	v0.017l10.063-26.394l4.246-21.426C384.688,130.349,384.38,128.345,383.431,126.622z"/>
<rect x="384.958" y="161.321" style="fill:#252D5C;" width="26.748" height="8.25"/>
<g>
</g>
<g>
</g>
<g>
</g>
<g>
</g>
<g>
</g>
<g>
</g>
<g>
</g>
<g>
</g>
<g>
</g>
<g>
</g>
<g>
</g>
<g>
</g>
<g>
</g>
<g>
</g>
<g>
</g>
</svg>
