<?xml version="1.0" encoding="iso-8859-1"?>
<!-- Generator: Adobe Illustrator 19.0.0, SVG Export Plug-In . SVG Version: 6.00 Build 0)  -->
<svg version="1.1" id="Layer_1" xmlns="http://www.w3.org/2000/svg" xmlns:xlink="http://www.w3.org/1999/xlink" x="0px" y="0px"
	 viewBox="0 0 512.005 512.005" style="enable-background:new 0 0 512.005 512.005;" xml:space="preserve">
<g>
	<circle style="fill:#fff;" cx="136.483" cy="54.936" r="54.936"/>
	<path style="fill:#fff;" d="M231.251,231.656c0,0,0,2.568,0-48.624s-55.872-52.128-55.872-52.128H97.603
		c0,0-55.872,0.624-55.872,52.128c0,51.192,0,48.624,0,48.624H231.251z"/>
</g>
<g>
	<circle style="fill:#FFEB3B;" cx="375.515" cy="54.936" r="54.936"/>
	<path style="fill:#FFEB3B;" d="M470.275,231.656c0,0,0,2.568,0-48.624s-55.872-52.128-55.872-52.128h-77.776
		c0,0-55.872,0.624-55.872,52.128c0,51.192,0,48.624,0,48.624H470.275z"/>
	<circle style="fill:#FFEB3B;" cx="136.483" cy="335.256" r="54.936"/>
	<path style="fill:#FFEB3B;" d="M231.251,511.976c0,0,0,2.568,0-48.624s-55.872-52.128-55.872-52.128H97.603
		c0,0-55.872,0.624-55.872,52.128c0,51.192,0,48.624,0,48.624H231.251z"/>
	<circle style="fill:#FFEB3B;" cx="375.515" cy="335.256" r="54.936"/>
	<path style="fill:#FFEB3B;" d="M470.275,511.976c0,0,0,2.568,0-48.624s-55.872-52.12-55.872-52.12h-77.776
		c0,0-55.872,0.624-55.872,52.128c0,51.192,0,48.624,0,48.624h189.52V511.976z"/>
</g>
</svg>
