<svg width="1480" height="669" viewBox="0 0 1480 669" xmlns="http://www.w3.org/2000/svg" style="transform:rotate(180deg)">
    <g fill="none" fill-rule="evenodd">
        <g opacity=".245">
            <path d="M475 653h24v16h-24v-16zm-152 0h120v16H323v-16zm-64 0h32v16h-32v-16zm-96 0h64v16h-64v-16zm-48 0h16v16h-16v-16z" fill="rgba(255, 255, 255, 0.70)"/>
            <path d="M320 589h48v32h-48v-32zm-80 0h48v32h-48v-32zm-112 0h80v32h-80v-32zm-48 0h16v32H80v-32zm-80 0h48v32H0v-32z" fill="rgba(255, 255, 255, 0.60)"/>
        </g>
        <g opacity=".067">
            <path d="M525 112h24v48h-24v-48zm-208 0h176v48H317v-48zm-128 0h96v48h-96v-48zm-56 0h24v48h-24v-48z" fill="rgba(255, 255, 255, 0.60)"/>
            <path d="M339 48h24v32h-24V48zm-128 0h96v32h-96V48zm-96 0h64v32h-64V48zm-64 0h32v32H51V48z" fill="rgba(255, 255, 255, 0.65)"/>
            <path d="M467 0h32v16h-32V0zM275 0h160v16H275V0zm-48 0h16v16h-16V0zm-96 0h64v16h-64V0z" fill="rgba(255, 255, 255, 0.55)"/>
        </g>
    </g>
</svg>
