<?xml version="1.0" encoding="UTF-8"?>
<!DOCTYPE svg PUBLIC "-//W3C//DTD SVG 1.1//EN" "http://www.w3.org/Graphics/SVG/1.1/DTD/svg11.dtd">
<!-- Creator: CorelDRAW X7 -->
<svg xmlns="http://www.w3.org/2000/svg" xml:space="preserve" width="69.7577mm" height="112.393mm" version="1.1" style="shape-rendering:geometricPrecision; text-rendering:geometricPrecision; image-rendering:optimizeQuality; fill-rule:evenodd; clip-rule:evenodd"
viewBox="0 0 3077 4958"
 xmlns:xlink="http://www.w3.org/1999/xlink">
 <defs>
  <style type="text/css">
   <![CDATA[
    .fil0 {fill:#FEFEFE}
   ]]>
  </style>
 </defs>
 <g id="Capa_x0020_1">
  <metadata id="CorelCorpID_0Corel-Layer"/>
  <path class="fil0" d="M908 145l-315 0 -4 968 -189 0 0 876 -226 7 -3 2825 2731 0 3 -2819 -229 -7 0 -881 -189 0 -1 -964 -317 -6 0 -144 -1260 1 -1 144zm-908 4807c509,13 1035,2 1543,0 214,-2 1434,18 1534,-8l-4 -89 -3062 -3 -11 100zm408 -2063l238 0 4 -421 -240 -6 -2 427zm0 1636l236 -3 6 -421 -241 -7 -1 431zm808 -3269l239 -1 3 -420 -241 -7 -1 428zm0 2178l237 -1 5 -420 -242 -7 0 428zm0 -1089l238 -1 4 -421 -241 -6 -1 428zm404 -546l240 0 2 -419 -242 -8 0 427zm-808 2179l237 -1 5 -420 -243 -7 1 428zm404 -2179l239 0 3 -420 -242 -6 0 426zm0 2725l236 -2 6 -420 -243 -8 1 430zm-404 -3269l238 0 4 -421 -243 -5 1 426zm1 2179l236 -1 5 -420 -245 -7 4 428zm403 -545l239 0 3 -421 -242 -7 0 428zm404 1635l237 -1 5 -420 -242 -9 0 430zm-1213 -1092l243 0 0 -420 -240 -6 -3 426zm405 -542l237 -2 5 -421 -244 -6 2 429zm0 -544l237 -1 6 -422 -243 -6 0 429zm0 2178l238 -1 4 -421 -243 -8 1 430zm808 -1088l239 -4 3 -419 -243 -7 1 430zm0 -1090l239 -2 3 -421 -242 -7 0 430zm-404 1632l237 -1 5 -420 -71 -7 -62 1 -110 0 1 427zm-809 -3l243 1 0 -421 -241 -4 -2 424zm1212 -1233l3 148 236 -2 4 -161 0 -258 -243 -9 0 282zm402 -942l245 1 -1 -428 -239 0 -5 427zm-1209 -2c268,15 243,7 243,-81 0,-109 2,-230 -3,-338l-241 -6 1 425zm806 2179l243 1 1 -428 -241 1 -3 426zm404 0l243 1 1 -428 -242 1 -2 426zm0 -2721l243 1 0 -429 -241 1 -2 427zm0 2179l243 -1 0 -428 -241 1 -2 428zm404 541l243 2 1 -427 -244 -1 0 426zm0 -542l242 0 1 -428 -244 0 1 428zm-404 -544l244 0 -1 -430 -240 1 -3 429zm0 1632l244 2 -1 -429 -242 0 -1 427zm0 -2465l0 288 243 0 0 -428 -243 0 0 140zm-402 -801c75,-1 186,12 231,-11 33,-68 12,-311 10,-408l-242 -9 1 428zm806 3269l243 -1 0 -429 -243 0 0 430zm2 -1636l231 0c25,-80 14,-333 8,-428l-241 0 2 428zm-1213 -2152l243 0 1 -429 -245 2 1 427zm403 -1l243 1 2 -428 -244 1 -1 426z"/>
 </g>
</svg>
