<?xml version="1.0" encoding="UTF-8"?>
<!DOCTYPE svg PUBLIC "-//W3C//DTD SVG 1.1//EN" "http://www.w3.org/Graphics/SVG/1.1/DTD/svg11.dtd">
<!-- Creator: CorelDRAW X7 -->
<svg xmlns="http://www.w3.org/2000/svg" xml:space="preserve" width="48.4688mm" height="69.1568mm" version="1.1" style="shape-rendering:geometricPrecision; text-rendering:geometricPrecision; image-rendering:optimizeQuality; fill-rule:evenodd; clip-rule:evenodd"
viewBox="0 0 4168 5947"
 xmlns:xlink="http://www.w3.org/1999/xlink">
 <defs>
  <style type="text/css">
   <![CDATA[
    .fil0 {fill:#FEFEFE}
   ]]>
  </style>
 </defs>
 <g id="Capa_x0020_1">
  <metadata id="CorelCorpID_0Corel-Layer"/>
  <path class="fil0" d="M376 5774l3412 0 2 -4892 -312 -1 -14 -307 -884 -1 -5 -241 -394 -5 3 -327 -1811 2 3 5772zm-375 170l4164 3 3 -138 -4168 0 1 135zm634 -4116l1288 4 -1 -194 -1286 -3 -1 193zm0 -759l1287 5 1 -197 -1288 -1 0 193zm1 -379l1287 4 -1 -196 -1284 -1 -2 193zm-3 1896l1289 5 2 -195 -1295 -3 4 193zm2 381l1287 4 -1 -197 -1286 -1 0 194zm1 1899l1286 2 1 -195 -1289 -2 2 195zm-2 -380l1288 2 1 -196 -1287 0 -2 194zm1 -379l1286 3 2 -196 -1288 -2 0 195zm0 -760l1288 4 0 -198 -1289 -1 1 195zm0 1899l1286 2 3 -199 -1288 2 -1 195zm0 -3798l1292 5 -2 -202 -1289 5 -1 192zm1 2280l1287 2 0 -200 -1287 3 0 195zm-4 -1514l1292 -3 -2 -199 -1285 0 -5 202zm2357 1862l335 5 -1 -803 -331 -7 -3 805zm-693 9l336 -3 0 -808 -326 -4 -10 815zm693 1150l333 5 1 -803 -333 -9 -1 807zm-692 6l333 -1 2 -807 -329 -6 -6 814zm0 -3474l337 -1 -2 -804 -336 -9 1 814zm0 1159l111 0 84 0 142 -5 -2 -800 -140 -12 -42 2 -153 1 0 814zm691 -1l335 1 2 -814 -337 -1 0 814zm0 -1158l336 1 1 -814 -337 -2 0 815z"/>
 </g>
</svg>
